<svg xmlns="http://www.w3.org/2000/svg" width="1018" height="611" fill="none"><path fill="#115B82" d="M0 0h1018v611H0z"/><g fill="#fff" clip-path="url(#a)"><path d="M416.56 278.129h-18.118v-33.042c.018-.819-.121-1.414-.398-1.749-.295-.335-.816-.503-1.58-.484h-3.436c-.764-.019-1.318.149-1.631.484-.312.335-.468.93-.451 1.749v74.792c-.017.818.139 1.414.451 1.748.313.335.867.503 1.631.484h3.436c.764.019 1.285-.149 1.58-.484.277-.334.416-.93.398-1.748V285.72h18.118v10.046c.017 5.861 1.093 10.866 3.262 15.033 2.168 4.149 5.345 7.331 9.545 9.526 4.182 2.214 9.318 3.33 15.409 3.349 6.022-.019 11.106-1.135 15.271-3.349 4.165-2.195 7.323-5.377 9.474-9.526 2.17-4.167 3.246-9.172 3.263-15.033v-26.567c-.017-5.861-1.093-10.866-3.263-15.033-2.151-4.149-5.309-7.331-9.474-9.545-4.165-2.195-9.249-3.311-15.271-3.33-6.091.019-11.227 1.135-15.409 3.33-4.2 2.214-7.377 5.396-9.545 9.545-2.169 4.167-3.245 9.172-3.262 15.033v8.93Zm48.728 17.637c0 4.373-.799 8.056-2.378 11.108-1.58 3.032-3.887 5.339-6.941 6.921-3.037 1.6-6.768 2.381-11.193 2.4-4.442-.019-8.208-.8-11.262-2.4-3.072-1.582-5.397-3.889-6.976-6.921-1.58-3.052-2.377-6.735-2.377-11.108v-26.567c0-4.372.797-8.075 2.377-11.108 1.579-3.032 3.904-5.339 6.976-6.939 3.054-1.582 6.82-2.382 11.262-2.382 4.425 0 8.156.8 11.193 2.382 3.054 1.6 5.361 3.907 6.941 6.939 1.579 3.033 2.378 6.736 2.378 11.108v26.567Zm23.635-52.912c-.764-.019-1.319.149-1.632.484-.312.335-.468.93-.451 1.749v74.792c-.017.818.139 1.414.451 1.748.313.335.868.503 1.632.484h3.435c.764.019 1.285-.149 1.58-.484.277-.334.416-.93.4-1.748v-27.573h22.385c4.877-.019 9.075-1.005 12.581-2.958 3.505-1.935 6.196-4.744 8.086-8.428 1.892-3.665 2.847-8.093 2.864-13.284-.017-5.191-.972-9.638-2.864-13.321-1.89-3.684-4.581-6.512-8.086-8.484-3.506-1.972-7.704-2.958-12.581-2.977h-27.8Zm5.415 41.973v-34.382h21.76c3.384.018 6.299.707 8.729 2.065 2.429 1.377 4.321 3.349 5.622 5.898 1.32 2.567 1.978 5.637 1.996 9.228-.018 3.591-.676 6.66-1.996 9.228-1.301 2.549-3.193 4.521-5.622 5.879-2.43 1.377-5.345 2.065-8.729 2.084h-21.76Zm107.764-41.973c-.469 0-.886.093-1.25.26a2.471 2.471 0 0 0-.937.856l-29.987 46.773a232.227 232.227 0 0 0-6.594 11.033 205.349 205.349 0 0 0-5.171 9.953h-.312c.416-3.851.728-7.776.937-11.795.207-4 .312-8.075.312-12.205v-42.642c.017-.819-.122-1.414-.4-1.749-.294-.335-.816-.503-1.579-.484h-3.435c-.764-.019-1.32.149-1.632.484-.312.335-.469.93-.451 1.749v74.792c-.018.818.139 1.414.451 1.748.312.335.868.503 1.632.484h3.435c.469 0 .886-.112 1.25-.316a3 3 0 0 0 .937-.912l30.715-47.889a432.494 432.494 0 0 0 6.473-10.977c1.857-3.293 3.419-6.214 4.668-8.781h.208a199.643 199.643 0 0 0-1.023 11.628c-.225 3.795-.33 7.516-.33 11.144v43.871c0 .818.138 1.414.451 1.748.33.335.868.503 1.632.484h3.435c.763.019 1.319-.149 1.632-.484.312-.334.468-.93.451-1.748v-74.792c.017-.819-.139-1.414-.451-1.749-.313-.335-.869-.503-1.632-.484h-3.435Zm19.574 52.801c.018 5.86 1.127 10.884 3.349 15.051 2.222 4.168 5.449 7.368 9.683 9.6 4.235 2.214 9.405 3.349 15.497 3.368 5.223 0 9.683-.726 13.397-2.196 3.696-1.451 6.732-3.627 9.093-6.511 2.378-2.903 4.182-6.512 5.414-10.828.209-.67.209-1.228 0-1.693-.209-.447-.625-.819-1.25-1.098l-3.227-1.34c-.625-.167-1.162-.13-1.632.093-.451.242-.815.689-1.076 1.358-.953 3.387-2.29 6.159-4.007 8.336-1.718 2.176-3.94 3.795-6.664 4.837-2.726 1.042-6.074 1.563-10.048 1.563-4.495-.019-8.277-.837-11.401-2.438-3.106-1.618-5.467-3.944-7.08-6.995-1.632-3.033-2.431-6.698-2.447-10.996v-26.567c0-4.335.797-8.019 2.394-11.052 1.597-3.032 3.939-5.358 7.045-6.958 3.107-1.6 6.942-2.419 11.489-2.419 3.905-.018 7.201.503 9.892 1.526 2.706 1.023 4.91 2.605 6.629 4.726 1.7 2.121 3.036 4.837 3.991 8.148.26.615.607 1.024 1.041 1.247.433.223.989.261 1.665.093l3.228-1.228c.763-.26 1.232-.614 1.406-1.042.173-.428.121-1.042-.157-1.86-1.232-4.279-3.036-7.833-5.397-10.661-2.36-2.828-5.379-4.93-9.058-6.326-3.678-1.413-8.087-2.102-13.24-2.102-6.16.019-11.35 1.135-15.583 3.368-4.235 2.232-7.463 5.432-9.65 9.6-2.185 4.167-3.278 9.191-3.296 15.051v26.345Zm63.722-52.801c-.764-.019-1.32.149-1.632.484-.313.335-.469.93-.451 1.749v3.125c-.018.819.138 1.396.451 1.749.312.335.868.484 1.632.484h21.031v69.434c-.017.818.139 1.414.451 1.748.313.335.869.503 1.632.484h3.437c.763.019 1.318-.149 1.63-.484.313-.334.469-.93.451-1.748v-69.434h21.033c.764 0 1.318-.149 1.631-.484.312-.353.468-.93.451-1.749v-3.125c.017-.819-.139-1.414-.451-1.749-.313-.335-.867-.503-1.631-.484h-49.665Zm59.036 52.801c.017 5.86 1.128 10.884 3.331 15.051 2.204 4.168 5.432 7.368 9.683 9.6 4.252 2.214 9.458 3.349 15.618 3.368 6.126-.019 11.297-1.154 15.548-3.368 4.235-2.232 7.463-5.432 9.667-9.6 2.186-4.167 3.297-9.191 3.314-15.051V269.31c-.017-5.86-1.128-10.884-3.314-15.051-2.204-4.168-5.432-7.368-9.667-9.6-4.251-2.233-9.422-3.349-15.548-3.368-6.16.019-11.366 1.135-15.618 3.368-4.251 2.232-7.479 5.432-9.683 9.6-2.203 4.167-3.314 9.191-3.331 15.051v26.345Zm49.665 0c0 4.372-.816 8.074-2.413 11.126-1.613 3.051-3.974 5.395-7.096 6.995-3.124 1.6-6.977 2.4-11.524 2.419-4.546-.019-8.398-.819-11.54-2.419-3.141-1.6-5.518-3.944-7.15-6.995-1.63-3.052-2.446-6.754-2.446-11.126V269.31c0-4.372.816-8.074 2.446-11.125 1.632-3.07 4.009-5.396 7.15-6.996 3.142-1.6 6.994-2.419 11.54-2.419 4.547 0 8.4.819 11.524 2.419 3.122 1.6 5.483 3.926 7.096 6.996 1.597 3.051 2.413 6.753 2.413 11.125v26.345Zm23.635-52.801c-.764-.019-1.319.149-1.632.484-.312.335-.468.93-.451 1.749v74.792c-.017.818.139 1.414.451 1.748.313.335.868.503 1.632.484h30.507c4.425-.019 8.26-.856 11.47-2.53 3.21-1.675 5.693-4.093 7.428-7.256 1.753-3.182 2.637-7.014 2.655-11.535 0-5.358-1.041-9.656-3.107-12.912-2.081-3.237-5.17-5.451-9.284-6.623v-.224c3.28-1.507 5.727-3.758 7.359-6.753 1.613-2.996 2.429-6.698 2.429-11.108-.017-4.372-.798-8.055-2.36-11.069-1.562-3.014-3.835-5.321-6.837-6.884-2.985-1.563-6.613-2.363-10.899-2.363h-29.361Zm41.752 21.321c-.017 4.633-1.146 8.112-3.419 10.456-2.273 2.326-5.57 3.498-9.909 3.498h-23.01v-27.684h23.01c4.426 0 7.758 1.135 9.978 3.423 2.239 2.289 3.35 5.73 3.35 10.307Zm-1.146 46.662c-1.197 1.227-2.671 2.158-4.424 2.772-1.754.614-3.749.911-5.987.911h-24.781v-29.135h24.781c2.238 0 4.233.298 5.987.911 1.753.614 3.227 1.545 4.424 2.773 1.197 1.283 2.083 2.828 2.673 4.632.59 1.805.867 3.907.867 6.307 0 2.4-.277 4.503-.867 6.289-.59 1.805-1.476 3.312-2.673 4.54Z"/><path d="M416.56 278.129h-18.118v-33.042c.018-.819-.121-1.414-.398-1.749-.295-.335-.816-.503-1.58-.484h-3.436c-.764-.019-1.318.149-1.631.484-.312.335-.468.93-.451 1.749v74.792c-.017.818.139 1.414.451 1.748.313.335.867.503 1.631.484h3.436c.764.019 1.285-.149 1.58-.484.277-.334.416-.93.398-1.748V285.72h18.118v10.046c.017 5.861 1.093 10.866 3.262 15.033 2.168 4.149 5.345 7.331 9.545 9.526 4.182 2.214 9.318 3.33 15.409 3.349 6.022-.019 11.106-1.135 15.271-3.349 4.165-2.195 7.323-5.377 9.474-9.526 2.17-4.167 3.246-9.172 3.263-15.033v-26.567c-.017-5.861-1.093-10.866-3.263-15.033-2.151-4.149-5.309-7.331-9.474-9.545-4.165-2.195-9.249-3.311-15.271-3.33-6.091.019-11.227 1.135-15.409 3.33-4.2 2.214-7.377 5.396-9.545 9.545-2.169 4.167-3.245 9.172-3.262 15.033v8.93Zm48.728 17.637c0 4.373-.799 8.056-2.378 11.108-1.58 3.032-3.887 5.339-6.941 6.921-3.037 1.6-6.768 2.381-11.193 2.4-4.442-.019-8.208-.8-11.262-2.4-3.072-1.582-5.397-3.889-6.976-6.921-1.58-3.052-2.377-6.735-2.377-11.108v-26.567c0-4.372.797-8.075 2.377-11.108 1.579-3.032 3.904-5.339 6.976-6.939 3.054-1.582 6.82-2.382 11.262-2.382 4.425 0 8.156.8 11.193 2.382 3.054 1.6 5.361 3.907 6.941 6.939 1.579 3.033 2.378 6.736 2.378 11.108v26.567Zm23.635-52.912c-.764-.019-1.319.149-1.632.484-.312.335-.468.93-.451 1.749v74.792c-.017.818.139 1.414.451 1.748.313.335.868.503 1.632.484h3.435c.764.019 1.285-.149 1.58-.484.277-.334.416-.93.399-1.748v-27.573h22.386c4.877-.019 9.075-1.005 12.581-2.958 3.505-1.935 6.196-4.744 8.086-8.428 1.892-3.665 2.847-8.093 2.864-13.284-.017-5.191-.972-9.638-2.864-13.321-1.89-3.684-4.581-6.512-8.086-8.484-3.506-1.972-7.704-2.958-12.581-2.977h-27.8Zm5.414 41.973v-34.382h21.761c3.384.018 6.299.707 8.729 2.065 2.429 1.377 4.321 3.349 5.622 5.898 1.32 2.567 1.978 5.637 1.996 9.228-.018 3.591-.676 6.66-1.996 9.228-1.301 2.549-3.193 4.521-5.622 5.879-2.43 1.377-5.345 2.065-8.729 2.084h-21.761Zm107.765-41.973c-.469 0-.886.093-1.25.26a2.463 2.463 0 0 0-.937.856l-29.987 46.773a232.227 232.227 0 0 0-6.594 11.033 205.349 205.349 0 0 0-5.171 9.953h-.312c.416-3.851.728-7.776.937-11.795.207-4 .312-8.075.312-12.205v-42.642c.017-.819-.122-1.414-.4-1.749-.294-.335-.816-.503-1.579-.484h-3.435c-.764-.019-1.32.149-1.632.484-.312.335-.469.93-.451 1.749v74.792c-.018.818.139 1.414.451 1.748.312.335.868.503 1.632.484h3.435c.469 0 .886-.112 1.25-.316a3 3 0 0 0 .937-.912l30.715-47.889a432.494 432.494 0 0 0 6.473-10.977c1.857-3.293 3.419-6.214 4.668-8.781h.208a199.643 199.643 0 0 0-1.023 11.628c-.225 3.795-.33 7.516-.33 11.144v43.871c0 .818.138 1.414.451 1.748.33.335.868.503 1.632.484h3.435c.763.019 1.319-.149 1.632-.484.312-.334.468-.93.451-1.748v-74.792c.017-.819-.139-1.414-.451-1.749-.313-.335-.869-.503-1.632-.484h-3.435Zm19.574 52.801c.018 5.86 1.127 10.884 3.349 15.051 2.222 4.168 5.449 7.368 9.683 9.6 4.235 2.214 9.405 3.349 15.497 3.368 5.223 0 9.683-.726 13.397-2.196 3.696-1.451 6.732-3.627 9.093-6.511 2.378-2.903 4.182-6.512 5.414-10.828.209-.67.209-1.228 0-1.693-.209-.447-.625-.819-1.25-1.098l-3.227-1.34c-.625-.167-1.162-.13-1.632.093-.451.242-.815.689-1.076 1.358-.953 3.387-2.29 6.159-4.009 8.336-1.716 2.176-3.938 3.795-6.662 4.837-2.726 1.042-6.074 1.563-10.048 1.563-4.495-.019-8.277-.837-11.401-2.438-3.106-1.618-5.467-3.944-7.08-6.995-1.632-3.033-2.431-6.698-2.447-10.996v-26.567c0-4.335.797-8.019 2.394-11.052 1.597-3.032 3.939-5.358 7.045-6.958 3.107-1.6 6.942-2.419 11.489-2.419 3.905-.018 7.201.503 9.892 1.526 2.706 1.023 4.91 2.605 6.629 4.726 1.7 2.121 3.036 4.837 3.991 8.148.26.615.607 1.024 1.041 1.247.433.223.989.261 1.665.093l3.228-1.228c.763-.26 1.232-.614 1.406-1.042.173-.428.121-1.042-.157-1.86-1.232-4.279-3.036-7.833-5.397-10.661-2.36-2.828-5.379-4.93-9.058-6.326-3.678-1.413-8.087-2.102-13.24-2.102-6.16.019-11.35 1.135-15.583 3.368-4.235 2.232-7.463 5.432-9.65 9.6-2.185 4.167-3.278 9.191-3.296 15.051v26.345Zm63.722-52.801c-.764-.019-1.32.149-1.632.484-.313.335-.469.93-.451 1.749v3.125c-.018.819.138 1.396.451 1.749.312.335.868.484 1.632.484h21.031v69.434c-.017.818.139 1.414.451 1.748.313.335.869.503 1.632.484h3.437c.763.019 1.318-.149 1.63-.484.313-.334.469-.93.451-1.748v-69.434h21.033c.764 0 1.318-.149 1.631-.484.312-.353.468-.93.451-1.749v-3.125c.017-.819-.139-1.414-.451-1.749-.313-.335-.867-.503-1.631-.484h-49.665Zm59.036 52.801c.017 5.86 1.127 10.884 3.331 15.051 2.204 4.168 5.432 7.368 9.683 9.6 4.252 2.214 9.458 3.349 15.618 3.368 6.126-.019 11.297-1.154 15.548-3.368 4.235-2.232 7.463-5.432 9.667-9.6 2.186-4.167 3.297-9.191 3.314-15.051V269.31c-.017-5.86-1.128-10.884-3.314-15.051-2.204-4.168-5.432-7.368-9.667-9.6-4.251-2.233-9.422-3.349-15.548-3.368-6.16.019-11.366 1.135-15.618 3.368-4.251 2.232-7.479 5.432-9.683 9.6-2.204 4.167-3.314 9.191-3.331 15.051v26.345Zm49.665 0c0 4.372-.816 8.074-2.413 11.126-1.613 3.051-3.974 5.395-7.096 6.995-3.124 1.6-6.977 2.4-11.524 2.419-4.546-.019-8.398-.819-11.54-2.419-3.141-1.6-5.518-3.944-7.15-6.995-1.63-3.052-2.446-6.754-2.446-11.126V269.31c0-4.372.816-8.074 2.446-11.125 1.632-3.07 4.009-5.396 7.15-6.996 3.142-1.6 6.994-2.419 11.54-2.419 4.547 0 8.4.819 11.524 2.419 3.122 1.6 5.483 3.926 7.096 6.996 1.597 3.051 2.413 6.753 2.413 11.125v26.345Zm23.635-52.801c-.764-.019-1.319.149-1.632.484-.312.335-.468.93-.451 1.749v74.792c-.017.818.139 1.414.451 1.748.313.335.868.503 1.632.484h30.507c4.425-.019 8.26-.856 11.47-2.53 3.21-1.675 5.692-4.093 7.428-7.256 1.753-3.182 2.637-7.014 2.655-11.535 0-5.358-1.041-9.656-3.107-12.912-2.081-3.237-5.17-5.451-9.284-6.623v-.224c3.28-1.507 5.727-3.758 7.359-6.753 1.613-2.996 2.429-6.698 2.429-11.108-.017-4.372-.798-8.055-2.36-11.069-1.562-3.014-3.835-5.321-6.837-6.884-2.985-1.563-6.613-2.363-10.899-2.363h-29.361Zm41.752 21.321c-.017 4.633-1.146 8.112-3.419 10.456-2.273 2.326-5.57 3.498-9.909 3.498h-23.01v-27.684h23.01c4.426 0 7.758 1.135 9.978 3.423 2.239 2.289 3.35 5.73 3.35 10.307Zm-1.146 46.662c-1.197 1.227-2.671 2.158-4.424 2.772-1.754.614-3.749.911-5.987.911h-24.781v-29.135h24.781c2.238 0 4.233.298 5.987.911 1.753.614 3.227 1.545 4.424 2.773 1.197 1.283 2.083 2.828 2.673 4.632.59 1.805.867 3.907.867 6.307 0 2.4-.277 4.503-.867 6.289-.59 1.805-1.476 3.312-2.673 4.54ZM170.826 347.222h-4.872v-8.148c.007-.403-.065-.676-.208-.827-.151-.144-.424-.215-.827-.208h-1.811c-.402-.007-.675.064-.826.208-.144.151-.216.424-.208.827v20.178c0 .69.344 1.035 1.034 1.035h1.811c.403.007.676-.065.827-.209.143-.151.215-.424.208-.826v-8.451h4.872v1.94c.007 1.718.381 3.184 1.114 4.405.74 1.222 1.811 2.156 3.219 2.803 1.402.647 3.105.977 5.11.984 2.019-.007 3.729-.337 5.145-.984 1.408-.647 2.486-1.581 3.226-2.803.733-1.221 1.107-2.687 1.114-4.405v-7.157c-.007-1.718-.381-3.183-1.114-4.405-.74-1.222-1.818-2.156-3.226-2.803-1.416-.653-3.126-.977-5.145-.984-2.005.007-3.708.331-5.11.984-1.408.647-2.479 1.581-3.219 2.803-.733 1.222-1.107 2.687-1.114 4.405v1.638Zm15.048 5.519c0 .978-.23 1.818-.676 2.523-.445.697-1.085 1.235-1.926 1.609-.833.374-1.832.568-3.003.568-1.165 0-2.163-.194-2.997-.568-.826-.374-1.459-.912-1.897-1.609-.446-.705-.661-1.545-.668-2.523v-7.157c.007-.992.222-1.84.668-2.544.438-.697 1.071-1.229 1.897-1.602.834-.367 1.832-.554 2.997-.554 1.796.008 3.183.417 4.146 1.236.963.812 1.451 1.969 1.459 3.464v7.157Zm10.175-14.099c-.453.18-.805.367-1.049.568-.244.201-.41.445-.503.747-.093.295-.137.676-.129 1.143v27.637c-.008.367.072.626.222.791.151.165.41.244.769.244h1.811c.403.007.676-.064.827-.208.143-.151.215-.425.208-.827v-8.968c1.121.388 2.149.676 3.076.87.934.194 1.774.294 2.529.294 6.123 0 9.184-2.932 9.184-8.795v-6.08c0-2.889-.755-5.059-2.257-6.503-1.509-1.444-3.758-2.163-6.755-2.163-1.573 0-3.018.108-4.34.316-1.315.216-2.515.525-3.593.934Zm13.064 13.366c0 1.79-.46 3.133-1.394 4.039-.934.898-2.335 1.351-4.211 1.351-.69 0-1.473-.094-2.357-.288a25.685 25.685 0 0 1-2.946-.833V342.48c-.007-.252.029-.439.115-.568.079-.129.258-.237.532-.338.733-.215 1.48-.381 2.234-.488a16.602 16.602 0 0 1 2.336-.159c1.897 0 3.32.439 4.269 1.323.948.876 1.422 2.191 1.422 3.938v5.82Zm9.572-13.969c-.402-.007-.675.064-.826.208-.144.151-.216.424-.209.827v20.178c0 .69.345 1.035 1.035 1.035h1.811a1.23 1.23 0 0 0 1.035-.518l9.27-12.633c.495-.711.948-1.394 1.351-2.048.409-.654.761-1.293 1.063-1.919h.13a35.331 35.331 0 0 0-.525 3.112 23.392 23.392 0 0 0-.165 2.623v10.348c-.007.402.064.675.208.826.151.144.424.216.826.209h1.811c.403.007.676-.065.827-.209.143-.151.215-.424.208-.826v-20.178c.007-.403-.065-.676-.208-.827-.151-.144-.424-.215-.827-.208h-1.811c-.215 0-.409.043-.574.129a1.074 1.074 0 0 0-.417.388l-9.4 12.762a20.183 20.183 0 0 0-2.328 3.881h-.129c.237-.927.409-1.854.524-2.788.108-.927.166-1.869.166-2.817v-10.52c.007-.403-.065-.676-.209-.827-.151-.144-.424-.215-.826-.208h-1.811Zm42.642 18.669v-17.634c0-.403-.079-.676-.244-.827-.166-.144-.424-.215-.791-.208h-14.228c-.367-.007-.625.064-.791.208-.165.151-.244.424-.244.827v6.51c0 1.789-.065 3.32-.187 4.599-.129 1.272-.309 2.3-.546 3.076-.259.797-.56 1.48-.913 2.048a5.381 5.381 0 0 1-1.2 1.401h-1.164c-.359-.007-.618.072-.769.23-.151.165-.23.445-.223.848v7.459c-.007.366.072.625.223.79.151.165.41.245.769.245h1.682c.366 0 .639-.087.812-.26.179-.171.266-.43.266-.775v-4.958h17.03v4.958c0 .366.08.625.245.79.165.165.431.245.79.245h1.682c.402 0 .675-.08.826-.245.144-.165.216-.424.209-.79v-7.459c.007-.403-.065-.683-.209-.848-.151-.158-.424-.237-.826-.23h-2.199Zm-12.547-15.091h8.666v15.091h-10.822c.712-1.035 1.251-2.458 1.61-4.276.366-1.811.546-4.024.546-6.632v-4.183Zm20.221-3.578c-.402-.007-.675.064-.826.208-.144.151-.215.424-.208.827v20.178c0 .69.345 1.035 1.034 1.035h1.811c.432 0 .777-.173 1.035-.518l9.27-12.633c.496-.711.948-1.394 1.352-2.048.408-.654.761-1.293 1.063-1.919h.129a35.331 35.331 0 0 0-.525 3.112 23.632 23.632 0 0 0-.165 2.623v10.348c-.007.402.065.675.209.826.151.144.423.216.826.209h1.81c.403.007.676-.065.828-.209.143-.151.214-.424.207-.826v-20.178c.007-.403-.064-.676-.207-.827-.152-.144-.425-.215-.828-.208h-1.81c-.215 0-.41.043-.575.129a1.081 1.081 0 0 0-.417.388l-9.399 12.762a20.082 20.082 0 0 0-2.328 3.881h-.13c.237-.927.41-1.854.525-2.788.108-.927.165-1.869.165-2.817v-10.52c.007-.403-.065-.676-.208-.827-.151-.144-.424-.215-.827-.208h-1.811Zm21.904 6.251c-.008 2.738.697 4.786 2.126 6.152 1.431 1.358 3.637 2.041 6.626 2.041 2.544 0 4.354-.216 5.433-.647v7.416c0 .402.078.675.245.826.164.144.423.216.789.209h1.811c.367.007.626-.065.791-.209.165-.151.245-.424.245-.826v-20.178c0-.403-.08-.676-.245-.827-.165-.144-.424-.215-.791-.208h-1.811c-.366-.007-.625.064-.789.208-.167.151-.245.424-.245.827v9.14c-1.294.517-2.932.776-4.916.776-3.621 0-5.432-1.595-5.432-4.786v-5.13c.007-.367-.073-.626-.222-.791-.152-.165-.41-.244-.77-.244h-1.811c-.402-.007-.676.064-.826.208-.143.151-.216.424-.208.827v5.216Zm22.635 7.675c0 1.847.353 3.442 1.056 4.779.705 1.337 1.761 2.364 3.177 3.09 1.423.726 3.197 1.092 5.339 1.099 2.242 0 4.14-.366 5.684-1.106a7.905 7.905 0 0 0 3.587-3.335c.473-.733.345-1.293-.389-1.681l-1.165-.604c-.358-.237-.667-.323-.919-.258-.259.064-.51.28-.761.646a5.616 5.616 0 0 1-2.379 2.235c-1.006.496-2.213.74-3.614.74-1.883-.007-3.314-.452-4.297-1.344-.979-.883-1.474-2.163-1.481-3.83v-2.069h14.056c.539 0 .941-.13 1.2-.381.266-.259.395-.632.395-1.128v-2.501c0-1.796-.374-3.356-1.106-4.692-.741-1.33-1.833-2.372-3.278-3.105-1.444-.74-3.234-1.114-5.36-1.128-2.113.007-3.895.366-5.347 1.085-1.444.726-2.537 1.768-3.277 3.14-.747 1.373-1.121 3.04-1.121 5.002v5.346Zm15.651-4.613h-11.813v-1.251c0-1.142.23-2.112.675-2.924.453-.805 1.122-1.43 1.998-1.854.877-.431 1.954-.654 3.234-.654 1.925.007 3.391.481 4.391 1.423 1.005.934 1.509 2.27 1.515 4.009v1.251Zm7.416 4.872c0 1.847.353 3.413 1.05 4.714.697 1.293 1.738 2.278 3.133 2.96 1.394.683 3.132 1.028 5.217 1.035 4.872 0 8.019-1.983 9.443-5.95.128-.345.128-.639.006-.876-.129-.245-.374-.439-.74-.59l-1.509-.431c-.395-.158-.704-.18-.912-.079-.209.108-.395.359-.554.769-.41 1.251-1.077 2.192-2.019 2.817-.934.625-2.141.934-3.629.934-1.839-.014-3.226-.46-4.175-1.351-.948-.891-1.423-2.149-1.431-3.78v-6.51c.008-1.624.483-2.882 1.431-3.758.949-.877 2.336-1.323 4.175-1.33 1.488 0 2.695.302 3.629.905.927.604 1.588 1.51 1.976 2.717.152.388.345.639.589.747.237.115.532.094.877-.057l1.51-.475c.366-.129.603-.316.718-.553.108-.244.1-.546-.029-.913-.603-1.918-1.66-3.363-3.176-4.326-1.509-.97-3.485-1.451-5.922-1.451-2.141.007-3.93.352-5.36 1.028-1.43.682-2.501 1.667-3.219 2.96-.719 1.287-1.079 2.846-1.079 4.678v6.166Zm37.942-.819c-.452-.927-.969-1.682-1.544-2.271-.582-.582-1.215-1.006-1.905-1.265l6.899-8.623c.324-.41.431-.711.324-.913-.109-.194-.432-.294-.971-.294h-1.638a7.134 7.134 0 0 0-.964.036c-.236.028-.431.1-.588.215-.151.108-.31.288-.475.525l-6.424 8.321H363.469v-8.062c.007-.403-.072-.676-.23-.827-.166-.144-.446-.215-.848-.208h-1.724c-.403-.007-.684.064-.849.208-.157.151-.237.424-.23.827v20.135c-.007.402.073.682.23.848.165.158.446.237.849.23h1.724c.402.007.682-.072.848-.23.158-.166.237-.446.23-.848v-8.494h3.924c.667 0 1.242.072 1.724.23.482.158.891.409 1.236.762.345.344.654.804.92 1.379l2.975 6.252c.123.266.244.474.374.611.122.136.295.23.502.273.216.043.511.065.891.065h1.682c.496 0 .791-.094.891-.281.101-.194.015-.503-.244-.927l-3.795-7.674Zm8.537-13.366c-.402-.007-.674.064-.826.208-.143.151-.216.424-.208.827v20.178c0 .69.345 1.035 1.034 1.035h1.812a1.23 1.23 0 0 0 1.035-.518l9.269-12.633a42.59 42.59 0 0 0 1.351-2.048c.41-.654.762-1.293 1.063-1.919h.13a35.706 35.706 0 0 0-.525 3.112 23.616 23.616 0 0 0-.164 2.623v10.348c-.008.402.064.675.208.826.15.144.424.216.826.209h1.811c.402.007.676-.065.827-.209.144-.151.215-.424.207-.826v-20.178c.008-.403-.063-.676-.207-.827-.151-.144-.425-.215-.827-.208h-1.811c-.216 0-.41.043-.575.129a1.088 1.088 0 0 0-.417.388l-9.399 12.762a20.082 20.082 0 0 0-2.328 3.881h-.129c.236-.927.409-1.854.524-2.788.108-.927.166-1.869.166-2.817v-10.52c.006-.403-.065-.676-.209-.827-.151-.144-.423-.215-.826-.208h-1.812Zm22.421 13.926c0 1.847.353 3.442 1.056 4.779.705 1.337 1.761 2.364 3.177 3.09 1.423.726 3.197 1.092 5.339 1.099 2.242 0 4.139-.366 5.684-1.106a7.89 7.89 0 0 0 3.585-3.335c.475-.733.345-1.293-.387-1.681l-1.165-.604c-.358-.237-.668-.323-.919-.258-.259.064-.51.28-.761.646a5.618 5.618 0 0 1-2.38 2.235c-1.005.496-2.213.74-3.615.74-1.881-.007-3.312-.452-4.297-1.344-.977-.883-1.473-2.163-1.479-3.83v-2.069H423.4c.54 0 .942-.13 1.201-.381.266-.259.395-.632.395-1.128v-2.501c0-1.796-.374-3.356-1.108-4.692-.739-1.33-1.831-2.372-3.276-3.105-1.444-.74-3.234-1.114-5.361-1.128-2.113.007-3.894.366-5.346 1.085-1.445.726-2.537 1.768-3.277 3.14-.747 1.373-1.121 3.04-1.121 5.002v5.346Zm15.651-4.613h-11.813v-1.251c0-1.142.23-2.112.675-2.924a4.463 4.463 0 0 1 1.998-1.854c.877-.431 1.954-.654 3.233-.654 1.926.007 3.392.481 4.391 1.423 1.006.934 1.509 2.27 1.516 4.009v1.251Zm32.941 4.053c-.453-.927-.971-1.682-1.546-2.271-.581-.582-1.214-1.006-1.904-1.265l6.899-8.623c.324-.41.431-.711.324-.913-.108-.194-.431-.294-.97-.294h-1.639a7.126 7.126 0 0 0-.963.036c-.237.028-.431.1-.589.215-.152.108-.309.288-.474.525l-6.425 8.321h-3.794v-8.062c.008-.403-.072-.676-.23-.827-.165-.144-.446-.215-.848-.208h-1.725c-.402-.007-.682.064-.847.208-.159.151-.237.424-.23.827v20.135c-.007.402.071.682.23.848.165.158.445.237.847.23h1.725c.402.007.683-.072.848-.23.158-.166.238-.446.23-.848v-8.494h3.924c.668 0 1.243.072 1.724.23.481.158.891.409 1.236.762.345.344.655.804.92 1.379l2.975 6.252c.122.266.245.474.373.611.123.136.295.23.504.273.215.043.51.065.891.065h1.682c.495 0 .79-.094.891-.281.1-.194.014-.503-.245-.927l-3.794-7.674Zm6.813 1.293c.006 1.718.395 3.191 1.163 4.412.769 1.229 1.868 2.171 3.307 2.832 1.437.654 3.168.984 5.188.991 2.062-.007 3.815-.337 5.252-.991 1.444-.661 2.544-1.603 3.306-2.832.755-1.221 1.135-2.694 1.142-4.412v-7.028c-.007-1.732-.387-3.212-1.142-4.448-.762-1.229-1.862-2.177-3.306-2.831-1.437-.661-3.19-.992-5.252-.999-2.02.007-3.751.338-5.188.999-1.439.654-2.538 1.602-3.307 2.831-.768 1.236-1.157 2.716-1.163 4.448v7.028Zm15.521 0c0 .992-.238 1.847-.704 2.551-.467.704-1.136 1.25-2.013 1.624-.868.374-1.918.568-3.146.568-1.215 0-2.249-.194-3.119-.568-.87-.374-1.531-.92-1.998-1.624-.468-.704-.697-1.559-.705-2.551v-7.071c.008-.999.237-1.847.705-2.551.467-.711 1.128-1.25 1.998-1.624.87-.374 1.904-.568 3.119-.568 1.228 0 2.278.194 3.146.568.877.374 1.546.913 2.013 1.624.466.704.704 1.552.704 2.551v7.071Zm24.317-14.659c-.366-.007-.624.064-.79.208-.165.151-.244.424-.244.827v8.062h-10.909v-8.062c.008-.403-.065-.676-.209-.827-.149-.144-.423-.215-.825-.208h-1.811c-.402-.007-.676.064-.827.208-.143.151-.215.424-.208.827v20.178c0 .69.345 1.035 1.035 1.035h1.811c.402.007.676-.065.825-.209.144-.151.217-.424.209-.826v-8.537h10.909v8.537c0 .402.079.675.244.826.166.144.424.216.79.209h1.811c.366.007.625-.065.791-.209.165-.151.244-.424.244-.826v-20.178c0-.403-.079-.676-.244-.827-.166-.144-.425-.215-.791-.208h-1.811Zm7.459 14.185c0 1.847.353 3.413 1.05 4.714.697 1.293 1.739 2.278 3.132 2.96 1.395.683 3.134 1.028 5.217 1.035 4.872 0 8.02-1.983 9.443-5.95.129-.345.129-.639.008-.876-.13-.245-.374-.439-.741-.59l-1.508-.431c-.396-.158-.705-.18-.914-.079-.207.108-.395.359-.552.769-.41 1.251-1.078 2.192-2.019 2.817-.935.625-2.142.934-3.63.934-1.84-.014-3.227-.46-4.175-1.351-.949-.891-1.423-2.149-1.43-3.78v-6.51c.007-1.624.481-2.882 1.43-3.758.948-.877 2.335-1.323 4.175-1.33 1.488 0 2.695.302 3.63.905.926.604 1.587 1.51 1.975 2.717.151.388.345.639.59.747.236.115.531.094.876-.057l1.509-.475c.367-.129.604-.316.719-.553.107-.244.1-.546-.029-.913-.603-1.918-1.66-3.363-3.176-4.326-1.51-.97-3.485-1.451-5.922-1.451-2.14.007-3.93.352-5.361 1.028-1.429.682-2.5 1.667-3.218 2.96-.719 1.287-1.079 2.846-1.079 4.678v6.166Zm38.762-14.185c-.366-.007-.625.064-.79.208-.166.151-.245.424-.245.827v16.599c-.97.302-1.918.532-2.839.683-.926.151-1.817.223-2.68.223-1.811 0-3.169-.432-4.074-1.287-.906-.862-1.358-2.141-1.358-3.844v-12.374c.007-.367-.073-.626-.223-.791-.151-.165-.409-.244-.769-.244h-1.811c-.402-.007-.675.064-.826.208-.144.151-.216.424-.209.827v12.503c0 2.846.733 4.98 2.192 6.403 1.466 1.423 3.65 2.134 6.56 2.134.906 0 1.862-.079 2.876-.23a27.41 27.41 0 0 0 3.161-.675v2.328c0 1.897-.46 3.32-1.387 4.269-.92.948-2.299 1.423-4.132 1.423-1.229 0-2.284-.238-3.175-.719-.885-.475-1.611-1.2-2.171-2.17a1.953 1.953 0 0 0-.482-.496.765.765 0 0 0-.518-.115c-.186.014-.416.093-.682.222l-1.251.69c-.366.194-.588.424-.667.69-.08.266 0 .582.236.949.841 1.466 1.985 2.566 3.443 3.298 1.452.733 3.219 1.1 5.311 1.1 6.209 0 9.313-3.104 9.313-9.314v-22.29c.007-.403-.065-.676-.209-.827-.151-.144-.424-.215-.826-.208h-1.768Zm11.426 0c-.403-.007-.676.064-.826.208-.144.151-.216.424-.209.827v6.726c0 2.242-.107 4.117-.331 5.626-.23 1.509-.575 2.652-1.048 3.428-.31.51-.59.905-.849 1.193a4.227 4.227 0 0 1-.818.718c-.288.187-.64.381-1.05.59-.237.151-.389.323-.452.524-.065.194-.044.424.063.683l.906 1.725c.152.28.324.46.533.546.2.086.437.079.718-.029.581-.28 1.106-.575 1.573-.884.46-.316.899-.697 1.309-1.15.416-.452.833-1.02 1.257-1.717.647-1.035 1.128-2.479 1.452-4.319.323-1.84.488-4.067.488-6.676v-4.441h8.321v17.635c-.007.402.065.675.209.826.151.144.423.216.826.209h1.768c.366.007.625-.065.791-.209.165-.151.244-.424.244-.826v-20.178c0-.403-.079-.676-.244-.827-.166-.144-.425-.215-.791-.208h-13.84Zm23.8 6.726v-5.691c.007-.403-.065-.676-.208-.827-.152-.144-.424-.215-.828-.208h-1.81c-.403-.007-.675.064-.826.208-.144.151-.216.424-.209.827v20.178c-.007.402.065.675.209.826.151.144.423.216.826.209h9.529c1.659-.008 3.083-.324 4.261-.942a6.422 6.422 0 0 0 2.717-2.673c.632-1.164.948-2.558.955-4.189-.007-1.617-.323-2.997-.955-4.147a6.395 6.395 0 0 0-2.717-2.644c-1.178-.611-2.602-.92-4.261-.927h-6.683Zm0 12.072v-8.58h6.208c1.373.015 2.437.388 3.198 1.128.762.741 1.151 1.768 1.157 3.098-.006 1.372-.395 2.436-1.157 3.197-.761.762-1.825 1.143-3.198 1.157h-6.208Zm17.419-18.798c-.403-.007-.676.064-.827.208-.144.151-.215.424-.209.827v1.509c-.006.366.065.625.209.79.151.165.424.244.827.244h6.294v17.635c-.006.402.065.675.209.826.151.144.424.216.826.209h1.812c.358.007.617-.065.768-.209.151-.151.23-.424.223-.826v-17.635h6.295c.366 0 .625-.079.791-.244.165-.165.244-.424.244-.79v-1.509c0-.403-.079-.676-.244-.827-.166-.144-.425-.215-.791-.208h-16.427Zm20.307 3.88c-.173.345-.215.64-.121.877.086.244.316.438.682.589l1.337.604c.265.1.474.151.617.151a.551.551 0 0 0 .389-.159 4.18 4.18 0 0 0 .416-.51c.54-.884 1.251-1.545 2.142-1.976.883-.438 1.954-.654 3.205-.654 1.257 0 2.263.201 3.018.589a3.47 3.47 0 0 1 1.624 1.732c.33.769.496 1.703.489 2.81v1.638a35.802 35.802 0 0 0-2.523-.229 38.456 38.456 0 0 0-2.393-.072c-2.307-.008-4.16.208-5.576.646-1.415.439-2.444 1.15-3.09 2.142-.64.999-.956 2.321-.948 3.981 0 1.186.172 2.213.51 3.076.344.862.848 1.559 1.516 2.098.668.56 1.624.977 2.867 1.257 1.243.281 2.759.424 4.548.424 1.617 0 3.041-.093 4.276-.287 1.229-.187 2.278-.467 3.141-.834.402-.165.711-.345.942-.532.222-.186.38-.431.473-.732.094-.302.137-.697.137-1.193v-11.254c.007-1.803-.28-3.355-.869-4.656-.59-1.294-1.538-2.292-2.846-2.997-1.315-.697-3.047-1.049-5.21-1.056-2.134 0-3.931.374-5.397 1.128-1.458.755-2.58 1.89-3.356 3.399Zm13.798 14.315c0 .237-.05.431-.159.589a1.067 1.067 0 0 1-.489.359c-.991.345-2.586.518-4.785.518-1.33 0-2.372-.13-3.133-.396-.762-.258-1.308-.661-1.625-1.192-.316-.539-.467-1.215-.459-2.034-.008-.848.158-1.538.496-2.07.337-.532.891-.927 1.667-1.178.783-.252 1.825-.374 3.14-.374.626 0 1.387.029 2.285.094.899.057 1.918.143 3.062.251v5.433Zm27.119.474v-17.634c0-.403-.079-.676-.244-.827-.165-.144-.423-.215-.791-.208h-1.81c-.366-.007-.625.064-.791.208-.165.151-.244.424-.244.827v17.634h-10.478v-17.634c.008-.403-.063-.676-.207-.827-.151-.144-.425-.215-.827-.208h-1.811c-.69 0-1.034.345-1.034 1.035v20.178c-.008.402.065.675.208.826.15.144.424.216.826.209h16.686v4.958c0 .366.08.625.245.79.165.165.431.245.789.245h1.682c.403 0 .676-.08.827-.245.144-.165.215-.424.208-.79v-7.459c.007-.403-.064-.683-.208-.848-.151-.158-.424-.237-.827-.23h-2.199ZM668.515 338.04c-.403-.007-.675.064-.826.208-.144.151-.216.424-.209.826v20.179c0 .69.345 1.035 1.035 1.035h1.81a1.23 1.23 0 0 0 1.035-.518l9.271-12.633a42.54 42.54 0 0 0 1.35-2.048c.41-.654.763-1.293 1.064-1.919h.13a35.331 35.331 0 0 0-.525 3.112 23.392 23.392 0 0 0-.165 2.623v10.348c-.008.402.064.675.209.826.15.144.423.216.826.209h1.81c.403.007.676-.065.826-.209.144-.151.216-.424.209-.826v-20.179c.007-.402-.065-.675-.209-.826-.15-.144-.423-.215-.826-.208h-1.81c-.217 0-.41.043-.575.129a1.09 1.09 0 0 0-.418.388l-9.399 12.762a20.183 20.183 0 0 0-2.328 3.881h-.13c.238-.927.41-1.854.525-2.788.108-.927.165-1.869.165-2.817v-10.521c.008-.402-.064-.675-.207-.826-.152-.144-.425-.215-.828-.208h-1.81Zm24.231 0c-.402-.007-.676.064-.826.208-.143.151-.216.424-.208.826v20.179c0 .69.345 1.035 1.034 1.035h1.811a1.23 1.23 0 0 0 1.035-.518l9.27-12.633a42.59 42.59 0 0 0 1.351-2.048 19.83 19.83 0 0 0 1.063-1.919h.13a35.306 35.306 0 0 0-.524 3.112 23.188 23.188 0 0 0-.167 2.623v10.348c-.006.402.065.675.209.826.151.144.425.216.827.209h1.811c.402.007.675-.065.826-.209.144-.151.216-.424.209-.826v-20.179c.007-.402-.065-.675-.209-.826-.151-.144-.424-.215-.826-.208h-1.811c-.216 0-.41.043-.576.129a1.078 1.078 0 0 0-.416.388l-9.399 12.762a20.082 20.082 0 0 0-2.328 3.881h-.13c.237-.927.41-1.854.525-2.788.107-.927.165-1.869.165-2.817v-10.521c.007-.402-.065-.675-.209-.826-.15-.144-.424-.215-.826-.208h-1.811Zm32.338 14.659c.006 1.718.395 3.191 1.163 4.412.769 1.229 1.868 2.17 3.305 2.832 1.439.654 3.171.984 5.19.991 2.062-.007 3.815-.337 5.252-.991 1.444-.662 2.544-1.603 3.306-2.832.755-1.221 1.135-2.694 1.142-4.412v-7.028c-.007-1.732-.387-3.212-1.142-4.448-.762-1.229-1.862-2.177-3.306-2.831-1.437-.661-3.19-.992-5.252-.999-2.019.007-3.751.338-5.19.999-1.437.654-2.536 1.602-3.305 2.831-.768 1.236-1.157 2.716-1.163 4.448v7.028Zm15.521 0c0 .992-.238 1.847-.704 2.551-.467.704-1.136 1.25-2.013 1.624-.868.374-1.918.568-3.146.568-1.215 0-2.249-.194-3.119-.568-.87-.374-1.531-.92-1.998-1.624-.467-.704-.697-1.559-.705-2.551v-7.071c.008-.999.238-1.847.705-2.551.467-.711 1.128-1.25 1.998-1.624.87-.374 1.904-.568 3.119-.568 1.228 0 2.278.194 3.146.568.877.374 1.546.913 2.013 1.624.466.704.704 1.552.704 2.551v7.071Zm24.318-14.659c-.366-.007-.625.064-.791.208-.165.151-.244.424-.244.826v8.063h-10.909v-8.063c.008-.402-.065-.675-.208-.826-.15-.144-.424-.215-.826-.208h-1.811c-.402-.007-.676.064-.827.208-.144.151-.215.424-.208.826v20.179c0 .69.345 1.035 1.035 1.035h1.811c.402.007.676-.065.826-.209.143-.151.216-.424.208-.826v-8.537h10.909v8.537c0 .402.079.675.244.826.166.144.425.216.791.209h1.81c.366.007.625-.065.791-.209.165-.151.244-.424.244-.826v-20.179c0-.402-.079-.675-.244-.826-.166-.144-.425-.215-.791-.208h-1.81Zm11.554 0c-.402-.007-.674.064-.826.208-.143.151-.216.424-.208.826v6.727c0 2.242-.108 4.117-.33 5.626-.23 1.509-.575 2.652-1.05 3.428-.308.51-.59.905-.848 1.193a4.173 4.173 0 0 1-.819.718c-.287.187-.639.381-1.049.59-.238.151-.388.323-.453.524-.065.194-.043.424.065.683l.905 1.725c.151.28.324.46.532.546.202.086.439.079.719-.029.582-.28 1.107-.575 1.573-.884.46-.316.898-.697 1.308-1.15.416-.452.834-1.02 1.257-1.717.648-1.035 1.129-2.479 1.452-4.319.324-1.84.489-4.067.489-6.676v-4.441h8.322v17.635c-.007.402.064.675.208.826.151.144.424.216.827.209h1.767c.367.007.626-.065.791-.209.165-.151.243-.424.243-.826v-20.179c0-.402-.078-.675-.243-.826-.165-.144-.424-.215-.791-.208h-13.841Zm19.489 3.88c-.173.345-.215.64-.122.877.087.244.317.438.683.589l1.337.604c.265.1.473.151.617.151a.551.551 0 0 0 .389-.159 4.18 4.18 0 0 0 .416-.51c.54-.884 1.251-1.545 2.141-1.976.884-.438 1.955-.654 3.206-.654 1.257 0 2.263.201 3.017.589a3.468 3.468 0 0 1 1.625 1.732c.33.769.496 1.703.488 2.81v1.638a35.72 35.72 0 0 0-2.522-.229 38.456 38.456 0 0 0-2.393-.072c-2.307-.008-4.16.208-5.576.646-1.416.439-2.443 1.15-3.09 2.142-.64.999-.956 2.321-.949 3.981 0 1.186.173 2.213.51 3.076.345.862.849 1.559 1.517 2.098.667.56 1.623.977 2.867 1.257 1.243.281 2.759.424 4.548.424 1.617 0 3.04-.093 4.276-.287 1.23-.187 2.278-.467 3.14-.834a3.71 3.71 0 0 0 .942-.532c.223-.186.38-.431.474-.732.094-.302.136-.697.136-1.193v-11.254c.008-1.803-.28-3.355-.868-4.656-.59-1.294-1.538-2.293-2.847-2.997-1.314-.697-3.046-1.049-5.209-1.056-2.134 0-3.931.374-5.397 1.128-1.458.755-2.579 1.89-3.356 3.399Zm13.797 14.315c0 .237-.05.431-.158.589a1.073 1.073 0 0 1-.489.359c-.991.345-2.587.518-4.786.518-1.329 0-2.37-.13-3.132-.396-.763-.258-1.309-.661-1.625-1.193-.316-.539-.466-1.214-.46-2.033-.006-.848.159-1.538.496-2.07.338-.532.891-.927 1.667-1.178.784-.252 1.826-.374 3.14-.374.627 0 1.387.029 2.286.094.898.057 1.919.143 3.061.251v5.433Zm25.137-25.827c.065-.216.065-.402-.007-.553-.08-.158-.23-.288-.467-.396l-1.509-.56c-.432-.129-.734 0-.906.388-.56 1.897-1.811 2.846-3.752 2.846-.969 0-1.759-.237-2.37-.712-.611-.474-1.057-1.185-1.337-2.134-.086-.194-.215-.316-.387-.366-.173-.051-.389-.043-.648.021l-1.337.517c-.236.065-.387.18-.466.345-.072.166-.072.367-.007.604.496 1.531 1.286 2.673 2.371 3.435 1.085.755 2.48 1.135 4.181 1.135 1.726 0 3.142-.38 4.241-1.135 1.106-.762 1.905-1.904 2.4-3.435Zm-15.22 7.632c-.402-.007-.676.064-.826.208-.144.151-.216.424-.209.826v20.179c0 .69.345 1.035 1.035 1.035h1.811c.431 0 .776-.173 1.034-.518l9.271-12.633c.496-.711.948-1.394 1.351-2.048a19.83 19.83 0 0 0 1.063-1.919h.13a35.331 35.331 0 0 0-.525 3.112 23.632 23.632 0 0 0-.165 2.623v10.348c-.007.402.064.675.207.826.152.144.425.216.828.209h1.81c.403.007.676-.065.826-.209.144-.151.217-.424.209-.826v-20.179c.008-.402-.065-.675-.209-.826-.15-.144-.423-.215-.826-.208h-1.81c-.216 0-.41.043-.575.129-.166.086-.31.216-.417.388l-9.4 12.762a20.183 20.183 0 0 0-2.328 3.881h-.13c.238-.927.41-1.854.525-2.788.108-.927.165-1.869.165-2.817v-10.521c.008-.402-.064-.675-.207-.826-.151-.144-.425-.215-.827-.208h-1.811Zm39.02 0c-.366-.007-.625.064-.791.208-.165.151-.243.424-.243.826v8.063h-10.909v-8.063c.007-.402-.065-.675-.209-.826-.15-.144-.424-.215-.826-.208h-1.81c-.403-.007-.676.064-.828.208-.143.151-.215.424-.207.826v20.179c0 .69.345 1.035 1.035 1.035h1.81c.402.007.676-.065.826-.209.144-.151.216-.424.209-.826v-8.537h10.909v8.537c0 .402.078.675.243.826.166.144.425.216.791.209h1.811c.367.007.625-.065.791-.209.165-.151.243-.424.243-.826v-20.179c0-.402-.078-.675-.243-.826-.166-.144-.424-.215-.791-.208H858.7Z"/><path d="M170.826 347.222h-4.872v-8.148c.007-.403-.065-.676-.208-.827-.151-.144-.424-.215-.827-.208h-1.811c-.402-.007-.675.064-.826.208-.144.151-.216.424-.208.827v20.178c0 .69.344 1.035 1.034 1.035h1.811c.403.007.676-.065.827-.209.143-.151.215-.424.208-.826v-8.451h4.872v1.94c.007 1.718.381 3.184 1.114 4.405.74 1.222 1.811 2.156 3.219 2.803 1.402.647 3.105.977 5.11.984 2.019-.007 3.729-.337 5.145-.984 1.408-.647 2.486-1.581 3.226-2.803.733-1.221 1.107-2.687 1.114-4.405v-7.157c-.007-1.718-.381-3.183-1.114-4.405-.74-1.222-1.818-2.156-3.226-2.803-1.416-.653-3.126-.977-5.145-.984-2.005.007-3.708.331-5.11.984-1.408.647-2.479 1.581-3.219 2.803-.733 1.222-1.107 2.687-1.114 4.405v1.638Zm15.048 5.519c0 .978-.23 1.818-.676 2.523-.445.697-1.085 1.235-1.926 1.609-.833.374-1.832.568-3.003.568-1.165 0-2.163-.194-2.997-.568-.826-.374-1.459-.912-1.897-1.609-.446-.705-.661-1.545-.668-2.523v-7.157c.007-.992.222-1.84.668-2.544.438-.697 1.071-1.229 1.897-1.602.834-.367 1.832-.554 2.997-.554 1.796.008 3.183.417 4.146 1.236.963.812 1.451 1.969 1.459 3.464v7.157Zm10.175-14.099c-.453.18-.805.367-1.049.568-.244.201-.41.445-.503.747-.093.295-.137.676-.129 1.143v27.637c-.008.367.072.626.222.791.151.165.41.244.769.244h1.811c.403.007.676-.064.827-.208.143-.151.215-.425.208-.827v-8.968c1.121.388 2.149.676 3.076.87.934.194 1.774.294 2.529.294 6.123 0 9.184-2.932 9.184-8.795v-6.08c0-2.889-.755-5.059-2.257-6.503-1.509-1.444-3.758-2.163-6.755-2.163-1.573 0-3.018.108-4.34.316-1.315.216-2.515.525-3.593.934Zm13.064 13.366c0 1.79-.46 3.133-1.394 4.039-.934.898-2.335 1.351-4.211 1.351-.69 0-1.473-.094-2.357-.288a25.685 25.685 0 0 1-2.946-.833V342.48c-.007-.252.029-.439.115-.568.079-.129.258-.237.532-.338.733-.215 1.48-.381 2.234-.488a16.602 16.602 0 0 1 2.336-.159c1.897 0 3.32.439 4.269 1.323.948.876 1.422 2.191 1.422 3.938v5.82Zm9.572-13.969c-.402-.007-.675.064-.826.208-.144.151-.216.424-.209.827v20.178c0 .69.345 1.035 1.035 1.035h1.811a1.23 1.23 0 0 0 1.035-.518l9.27-12.633c.495-.711.948-1.394 1.351-2.048.409-.654.761-1.293 1.063-1.919h.13a35.331 35.331 0 0 0-.525 3.112 23.392 23.392 0 0 0-.165 2.623v10.348c-.007.402.064.675.208.826.151.144.424.216.826.209h1.811c.403.007.676-.065.827-.209.143-.151.215-.424.208-.826v-20.178c.007-.403-.065-.676-.208-.827-.151-.144-.424-.215-.827-.208h-1.811c-.215 0-.409.043-.574.129a1.074 1.074 0 0 0-.417.388l-9.4 12.762a20.183 20.183 0 0 0-2.328 3.881h-.129c.237-.927.409-1.854.524-2.788.108-.927.166-1.869.166-2.817v-10.52c.007-.403-.065-.676-.209-.827-.151-.144-.424-.215-.826-.208h-1.811Zm42.642 18.669v-17.634c0-.403-.079-.676-.244-.827-.166-.144-.424-.215-.791-.208h-14.228c-.367-.007-.625.064-.791.208-.165.151-.244.424-.244.827v6.51c0 1.789-.065 3.32-.187 4.599-.129 1.272-.309 2.3-.546 3.076-.259.797-.56 1.48-.913 2.048a5.381 5.381 0 0 1-1.2 1.401h-1.164c-.359-.007-.618.072-.769.23-.151.165-.23.445-.223.848v7.459c-.007.366.072.625.223.79.151.165.41.245.769.245h1.682c.366 0 .639-.087.812-.26.179-.171.266-.43.266-.775v-4.958h17.03v4.958c0 .366.08.625.245.79.165.165.431.245.79.245h1.682c.402 0 .675-.08.826-.245.144-.165.216-.424.209-.79v-7.459c.007-.403-.065-.683-.209-.848-.151-.158-.424-.237-.826-.23h-2.199Zm-12.547-15.091h8.666v15.091h-10.822c.712-1.035 1.251-2.458 1.61-4.276.366-1.811.546-4.024.546-6.632v-4.183Zm20.221-3.578c-.402-.007-.675.064-.826.208-.144.151-.215.424-.208.827v20.178c0 .69.345 1.035 1.034 1.035h1.811c.432 0 .777-.173 1.035-.518l9.27-12.633c.496-.711.948-1.394 1.352-2.048.408-.654.761-1.293 1.063-1.919h.129a35.331 35.331 0 0 0-.525 3.112 23.632 23.632 0 0 0-.165 2.623v10.348c-.007.402.065.675.209.826.151.144.423.216.826.209h1.81c.403.007.676-.065.828-.209.143-.151.214-.424.207-.826v-20.178c.007-.403-.064-.676-.207-.827-.152-.144-.425-.215-.828-.208h-1.81c-.215 0-.41.043-.575.129a1.081 1.081 0 0 0-.417.388l-9.399 12.762a20.082 20.082 0 0 0-2.328 3.881h-.13c.237-.927.41-1.854.525-2.788.108-.927.165-1.869.165-2.817v-10.52c.007-.403-.065-.676-.208-.827-.151-.144-.424-.215-.827-.208h-1.811Zm21.904 6.251c-.008 2.738.697 4.786 2.126 6.152 1.431 1.358 3.637 2.041 6.626 2.041 2.544 0 4.354-.216 5.433-.647v7.416c0 .402.078.675.245.826.164.144.423.216.789.209h1.811c.367.007.626-.065.791-.209.165-.151.245-.424.245-.826v-20.178c0-.403-.08-.676-.245-.827-.165-.144-.424-.215-.791-.208h-1.811c-.366-.007-.625.064-.789.208-.167.151-.245.424-.245.827v9.14c-1.294.517-2.932.776-4.916.776-3.621 0-5.432-1.595-5.432-4.786v-5.13c.007-.367-.073-.626-.222-.791-.152-.165-.41-.244-.77-.244h-1.811c-.402-.007-.676.064-.826.208-.143.151-.216.424-.208.827v5.216Zm22.635 7.675c0 1.847.353 3.442 1.056 4.779.705 1.337 1.761 2.364 3.177 3.09 1.423.726 3.197 1.092 5.339 1.099 2.242 0 4.14-.366 5.684-1.106a7.905 7.905 0 0 0 3.587-3.335c.473-.733.345-1.293-.389-1.681l-1.165-.604c-.358-.237-.667-.323-.919-.258-.259.064-.51.28-.761.646a5.616 5.616 0 0 1-2.379 2.235c-1.006.496-2.213.74-3.614.74-1.883-.007-3.314-.452-4.297-1.344-.979-.883-1.474-2.163-1.481-3.83v-2.069h14.056c.539 0 .941-.13 1.2-.381.266-.259.395-.632.395-1.128v-2.501c0-1.796-.374-3.356-1.106-4.692-.741-1.33-1.833-2.372-3.278-3.105-1.444-.74-3.234-1.114-5.36-1.128-2.113.007-3.895.366-5.347 1.085-1.444.726-2.537 1.768-3.277 3.14-.747 1.373-1.121 3.04-1.121 5.002v5.346Zm15.651-4.613h-11.813v-1.251c0-1.142.23-2.112.675-2.924.453-.805 1.122-1.43 1.998-1.854.877-.431 1.954-.654 3.234-.654 1.925.007 3.391.481 4.391 1.423 1.005.934 1.509 2.27 1.515 4.009v1.251Zm7.416 4.872c0 1.847.353 3.413 1.05 4.714.697 1.293 1.738 2.278 3.133 2.96 1.394.683 3.132 1.028 5.217 1.035 4.872 0 8.019-1.983 9.443-5.95.128-.345.128-.639.006-.876-.129-.245-.374-.439-.74-.59l-1.509-.431c-.395-.158-.704-.18-.912-.079-.209.108-.395.359-.554.769-.41 1.251-1.077 2.192-2.019 2.817-.934.625-2.141.934-3.629.934-1.839-.014-3.226-.46-4.175-1.351-.948-.891-1.423-2.149-1.431-3.78v-6.51c.008-1.624.483-2.882 1.431-3.758.949-.877 2.336-1.323 4.175-1.33 1.488 0 2.695.302 3.629.905.927.604 1.588 1.51 1.976 2.717.152.388.345.639.589.747.237.115.532.094.877-.057l1.51-.475c.366-.129.603-.316.718-.553.108-.244.1-.546-.029-.913-.603-1.918-1.66-3.363-3.176-4.326-1.509-.97-3.485-1.451-5.922-1.451-2.141.007-3.93.352-5.36 1.028-1.43.682-2.501 1.667-3.219 2.96-.719 1.287-1.079 2.846-1.079 4.678v6.166Zm37.942-.819c-.452-.927-.969-1.682-1.544-2.271-.582-.582-1.215-1.006-1.905-1.265l6.899-8.623c.324-.41.431-.711.324-.913-.109-.194-.432-.294-.971-.294h-1.638a7.134 7.134 0 0 0-.964.036c-.236.028-.431.1-.588.215-.151.108-.31.288-.475.525l-6.424 8.321H363.469v-8.062c.007-.403-.072-.676-.23-.827-.166-.144-.446-.215-.848-.208h-1.724c-.403-.007-.684.064-.849.208-.157.151-.237.424-.23.827v20.135c-.007.402.073.682.23.848.165.158.446.237.849.23h1.724c.402.007.682-.072.848-.23.158-.166.237-.446.23-.848v-8.494h3.924c.667 0 1.242.072 1.724.23.482.158.891.409 1.236.762.345.344.654.804.92 1.379l2.975 6.252c.123.266.244.474.374.611.122.136.295.23.502.273.216.043.511.065.891.065h1.682c.496 0 .791-.094.891-.281.101-.194.015-.503-.244-.927l-3.795-7.674Zm8.537-13.366c-.402-.007-.674.064-.826.208-.143.151-.216.424-.208.827v20.178c0 .69.345 1.035 1.034 1.035h1.812a1.23 1.23 0 0 0 1.035-.518l9.269-12.633a42.59 42.59 0 0 0 1.351-2.048c.41-.654.762-1.293 1.063-1.919h.13a35.706 35.706 0 0 0-.525 3.112 23.616 23.616 0 0 0-.164 2.623v10.348c-.008.402.064.675.208.826.15.144.424.216.826.209h1.811c.402.007.676-.065.827-.209.144-.151.215-.424.207-.826v-20.178c.008-.403-.063-.676-.207-.827-.151-.144-.425-.215-.827-.208h-1.811c-.216 0-.41.043-.575.129a1.088 1.088 0 0 0-.417.388l-9.399 12.762a20.082 20.082 0 0 0-2.328 3.881h-.129c.236-.927.409-1.854.524-2.788.108-.927.166-1.869.166-2.817v-10.52c.006-.403-.065-.676-.209-.827-.151-.144-.423-.215-.826-.208h-1.812Zm22.421 13.926c0 1.847.353 3.442 1.056 4.779.705 1.337 1.761 2.364 3.177 3.09 1.423.726 3.197 1.092 5.339 1.099 2.242 0 4.139-.366 5.684-1.106a7.89 7.89 0 0 0 3.585-3.335c.475-.733.345-1.293-.387-1.681l-1.165-.604c-.358-.237-.668-.323-.919-.258-.259.064-.51.28-.761.646a5.618 5.618 0 0 1-2.38 2.235c-1.005.496-2.213.74-3.615.74-1.881-.007-3.312-.452-4.297-1.344-.977-.883-1.473-2.163-1.479-3.83v-2.069H423.4c.54 0 .942-.13 1.201-.381.266-.259.395-.632.395-1.128v-2.501c0-1.796-.374-3.356-1.108-4.692-.739-1.33-1.831-2.372-3.276-3.105-1.444-.74-3.234-1.114-5.361-1.128-2.113.007-3.894.366-5.346 1.085-1.445.726-2.537 1.768-3.277 3.14-.747 1.373-1.121 3.04-1.121 5.002v5.346Zm15.651-4.613h-11.813v-1.251c0-1.142.23-2.112.675-2.924a4.463 4.463 0 0 1 1.998-1.854c.877-.431 1.954-.654 3.233-.654 1.926.007 3.392.481 4.391 1.423 1.006.934 1.509 2.27 1.516 4.009v1.251Zm32.941 4.053c-.453-.927-.971-1.682-1.546-2.271-.581-.582-1.214-1.006-1.904-1.265l6.899-8.623c.324-.41.431-.711.324-.913-.108-.194-.431-.294-.97-.294h-1.639a7.126 7.126 0 0 0-.963.036c-.237.028-.431.1-.589.215-.152.108-.309.288-.474.525l-6.425 8.321h-3.794v-8.062c.008-.403-.072-.676-.23-.827-.165-.144-.446-.215-.848-.208h-1.725c-.402-.007-.682.064-.847.208-.159.151-.237.424-.23.827v20.135c-.007.402.071.682.23.848.165.158.445.237.847.23h1.725c.402.007.683-.072.848-.23.158-.166.238-.446.23-.848v-8.494h3.924c.668 0 1.243.072 1.724.23.481.158.891.409 1.236.762.345.344.655.804.92 1.379l2.975 6.252c.122.266.245.474.373.611.123.136.295.23.504.273.215.043.51.065.891.065h1.682c.495 0 .79-.094.891-.281.1-.194.014-.503-.245-.927l-3.794-7.674Zm6.813 1.293c.006 1.718.395 3.191 1.163 4.412.769 1.229 1.868 2.171 3.307 2.832 1.437.654 3.168.984 5.188.991 2.062-.007 3.815-.337 5.252-.991 1.444-.661 2.544-1.603 3.306-2.832.755-1.221 1.135-2.694 1.142-4.412v-7.028c-.007-1.732-.387-3.212-1.142-4.448-.762-1.229-1.862-2.177-3.306-2.831-1.437-.661-3.19-.992-5.252-.999-2.02.007-3.751.338-5.188.999-1.439.654-2.538 1.602-3.307 2.831-.768 1.236-1.157 2.716-1.163 4.448v7.028Zm15.521 0c0 .992-.238 1.847-.704 2.551-.467.704-1.136 1.25-2.013 1.624-.868.374-1.918.568-3.146.568-1.215 0-2.249-.194-3.119-.568-.87-.374-1.531-.92-1.998-1.624-.468-.704-.697-1.559-.705-2.551v-7.071c.008-.999.237-1.847.705-2.551.467-.711 1.128-1.25 1.998-1.624.87-.374 1.904-.568 3.119-.568 1.228 0 2.278.194 3.146.568.877.374 1.546.913 2.013 1.624.466.704.704 1.552.704 2.551v7.071Zm24.317-14.659c-.366-.007-.624.064-.79.208-.165.151-.244.424-.244.827v8.062h-10.909v-8.062c.008-.403-.065-.676-.209-.827-.149-.144-.423-.215-.825-.208h-1.811c-.402-.007-.676.064-.827.208-.143.151-.215.424-.208.827v20.178c0 .69.345 1.035 1.035 1.035h1.811c.402.007.676-.065.825-.209.144-.151.217-.424.209-.826v-8.537h10.909v8.537c0 .402.079.675.244.826.166.144.424.216.79.209h1.811c.366.007.625-.065.791-.209.165-.151.244-.424.244-.826v-20.178c0-.403-.079-.676-.244-.827-.166-.144-.425-.215-.791-.208h-1.811Zm7.459 14.185c0 1.847.353 3.413 1.05 4.714.697 1.293 1.739 2.278 3.132 2.96 1.395.683 3.134 1.028 5.217 1.035 4.872 0 8.02-1.983 9.443-5.95.129-.345.129-.639.008-.876-.13-.245-.374-.439-.741-.59l-1.508-.431c-.396-.158-.705-.18-.914-.079-.207.108-.395.359-.552.769-.41 1.251-1.078 2.192-2.019 2.817-.935.625-2.142.934-3.63.934-1.84-.014-3.227-.46-4.175-1.351-.949-.891-1.423-2.149-1.43-3.78v-6.51c.007-1.624.481-2.882 1.43-3.758.948-.877 2.335-1.323 4.175-1.33 1.488 0 2.695.302 3.63.905.926.604 1.587 1.51 1.975 2.717.151.388.345.639.59.747.236.115.531.094.876-.057l1.509-.475c.367-.129.604-.316.719-.553.107-.244.1-.546-.029-.913-.603-1.918-1.66-3.363-3.176-4.326-1.51-.97-3.485-1.451-5.922-1.451-2.14.007-3.93.352-5.361 1.028-1.429.682-2.5 1.667-3.218 2.96-.719 1.287-1.079 2.846-1.079 4.678v6.166Zm38.762-14.185c-.366-.007-.625.064-.79.208-.166.151-.245.424-.245.827v16.599c-.97.302-1.918.532-2.839.683-.926.151-1.817.223-2.68.223-1.811 0-3.169-.432-4.074-1.287-.906-.862-1.358-2.141-1.358-3.844v-12.374c.007-.367-.073-.626-.223-.791-.151-.165-.409-.244-.769-.244h-1.811c-.402-.007-.675.064-.826.208-.144.151-.216.424-.209.827v12.503c0 2.846.733 4.98 2.192 6.403 1.466 1.423 3.65 2.134 6.56 2.134.906 0 1.862-.079 2.876-.23a27.41 27.41 0 0 0 3.161-.675v2.328c0 1.897-.46 3.32-1.387 4.269-.92.948-2.299 1.423-4.132 1.423-1.229 0-2.284-.238-3.175-.719-.885-.475-1.611-1.2-2.171-2.17a1.953 1.953 0 0 0-.482-.496.765.765 0 0 0-.518-.115c-.186.014-.416.093-.682.222l-1.251.69c-.366.194-.588.424-.667.69-.08.266 0 .582.236.949.841 1.466 1.985 2.566 3.443 3.298 1.452.733 3.219 1.1 5.311 1.1 6.209 0 9.313-3.104 9.313-9.314v-22.29c.007-.403-.065-.676-.209-.827-.151-.144-.424-.215-.826-.208h-1.768Zm11.426 0c-.403-.007-.676.064-.826.208-.144.151-.216.424-.209.827v6.726c0 2.242-.107 4.117-.331 5.626-.23 1.509-.575 2.652-1.048 3.428-.31.51-.59.905-.849 1.193a4.227 4.227 0 0 1-.818.718c-.288.187-.64.381-1.05.59-.237.151-.389.323-.452.524-.065.194-.044.424.063.683l.906 1.725c.152.28.324.46.533.546.2.086.437.079.718-.029.581-.28 1.106-.575 1.573-.884.46-.316.899-.697 1.309-1.15.416-.452.833-1.02 1.257-1.717.647-1.035 1.128-2.479 1.452-4.319.323-1.84.488-4.067.488-6.676v-4.441h8.321v17.635c-.007.402.065.675.209.826.151.144.423.216.826.209h1.768c.366.007.625-.065.791-.209.165-.151.244-.424.244-.826v-20.178c0-.403-.079-.676-.244-.827-.166-.144-.425-.215-.791-.208h-13.84Zm23.8 6.726v-5.691c.007-.403-.065-.676-.208-.827-.152-.144-.424-.215-.828-.208h-1.81c-.403-.007-.675.064-.826.208-.144.151-.216.424-.209.827v20.178c-.007.402.065.675.209.826.151.144.423.216.826.209h9.529c1.659-.008 3.083-.324 4.261-.942a6.422 6.422 0 0 0 2.717-2.673c.632-1.164.948-2.558.955-4.189-.007-1.617-.323-2.997-.955-4.147a6.395 6.395 0 0 0-2.717-2.644c-1.178-.611-2.602-.92-4.261-.927h-6.683Zm0 12.072v-8.58h6.208c1.373.015 2.437.388 3.198 1.128.762.741 1.151 1.768 1.157 3.098-.006 1.372-.395 2.436-1.157 3.197-.761.762-1.825 1.143-3.198 1.157h-6.208Zm17.419-18.798c-.403-.007-.676.064-.827.208-.144.151-.215.424-.209.827v1.509c-.006.366.065.625.209.79.151.165.424.244.827.244h6.294v17.635c-.006.402.065.675.209.826.151.144.424.216.826.209h1.812c.358.007.617-.065.768-.209.151-.151.23-.424.223-.826v-17.635h6.295c.366 0 .625-.079.791-.244.165-.165.244-.424.244-.79v-1.509c0-.403-.079-.676-.244-.827-.166-.144-.425-.215-.791-.208h-16.427Zm20.307 3.88c-.173.345-.215.64-.121.877.086.244.316.438.682.589l1.337.604c.265.1.474.151.617.151a.551.551 0 0 0 .389-.159 4.18 4.18 0 0 0 .416-.51c.54-.884 1.251-1.545 2.142-1.976.883-.438 1.954-.654 3.205-.654 1.257 0 2.263.201 3.018.589a3.47 3.47 0 0 1 1.624 1.732c.33.769.496 1.703.489 2.81v1.638a35.802 35.802 0 0 0-2.523-.229 38.456 38.456 0 0 0-2.393-.072c-2.307-.008-4.16.208-5.576.646-1.415.439-2.444 1.15-3.09 2.142-.64.999-.956 2.321-.948 3.981 0 1.186.172 2.213.51 3.076.344.862.848 1.559 1.516 2.098.668.56 1.624.977 2.867 1.257 1.243.281 2.759.424 4.548.424 1.617 0 3.041-.093 4.276-.287 1.229-.187 2.278-.467 3.141-.834.402-.165.711-.345.942-.532.222-.186.38-.431.473-.732.094-.302.137-.697.137-1.193v-11.254c.007-1.803-.28-3.355-.869-4.656-.59-1.294-1.538-2.292-2.846-2.997-1.315-.697-3.047-1.049-5.21-1.056-2.134 0-3.931.374-5.397 1.128-1.458.755-2.58 1.89-3.356 3.399Zm13.798 14.315c0 .237-.05.431-.159.589a1.067 1.067 0 0 1-.489.359c-.991.345-2.586.518-4.785.518-1.33 0-2.372-.13-3.133-.396-.762-.258-1.308-.661-1.625-1.192-.316-.539-.467-1.215-.459-2.034-.008-.848.158-1.538.496-2.07.337-.532.891-.927 1.667-1.178.783-.252 1.825-.374 3.14-.374.626 0 1.387.029 2.285.094.899.057 1.918.143 3.062.251v5.433Zm27.119.474v-17.634c0-.403-.079-.676-.244-.827-.165-.144-.423-.215-.791-.208h-1.81c-.366-.007-.625.064-.791.208-.165.151-.244.424-.244.827v17.634h-10.478v-17.634c.008-.403-.063-.676-.207-.827-.151-.144-.425-.215-.827-.208h-1.811c-.69 0-1.034.345-1.034 1.035v20.178c-.008.402.065.675.208.826.15.144.424.216.826.209h16.686v4.958c0 .366.08.625.245.79.165.165.431.245.789.245h1.682c.403 0 .676-.08.827-.245.144-.165.215-.424.208-.79v-7.459c.007-.403-.064-.683-.208-.848-.151-.158-.424-.237-.827-.23h-2.199ZM668.515 338.04c-.403-.007-.675.064-.826.208-.144.151-.216.424-.209.826v20.179c0 .69.345 1.035 1.035 1.035h1.81a1.23 1.23 0 0 0 1.035-.518l9.271-12.633a42.54 42.54 0 0 0 1.35-2.048c.41-.654.763-1.293 1.064-1.919h.13a35.331 35.331 0 0 0-.525 3.112 23.392 23.392 0 0 0-.165 2.623v10.348c-.008.402.064.675.209.826.15.144.423.216.826.209h1.81c.403.007.676-.065.826-.209.144-.151.216-.424.209-.826v-20.179c.007-.402-.065-.675-.209-.826-.15-.144-.423-.215-.826-.208h-1.81c-.217 0-.41.043-.575.129a1.09 1.09 0 0 0-.418.388l-9.399 12.762a20.183 20.183 0 0 0-2.328 3.881h-.13c.238-.927.41-1.854.525-2.788.108-.927.165-1.869.165-2.817v-10.521c.008-.402-.064-.675-.207-.826-.152-.144-.425-.215-.828-.208h-1.81Zm24.231 0c-.402-.007-.676.064-.826.208-.143.151-.216.424-.208.826v20.179c0 .69.345 1.035 1.034 1.035h1.811a1.23 1.23 0 0 0 1.035-.518l9.27-12.633a42.59 42.59 0 0 0 1.351-2.048 19.83 19.83 0 0 0 1.063-1.919h.13a35.306 35.306 0 0 0-.524 3.112 23.188 23.188 0 0 0-.167 2.623v10.348c-.006.402.065.675.209.826.151.144.425.216.827.209h1.811c.402.007.675-.065.826-.209.144-.151.216-.424.209-.826v-20.179c.007-.402-.065-.675-.209-.826-.151-.144-.424-.215-.826-.208h-1.811c-.216 0-.41.043-.576.129a1.078 1.078 0 0 0-.416.388l-9.399 12.762a20.082 20.082 0 0 0-2.328 3.881h-.13c.237-.927.41-1.854.525-2.788.107-.927.165-1.869.165-2.817v-10.521c.007-.402-.065-.675-.209-.826-.15-.144-.424-.215-.826-.208h-1.811Zm32.338 14.659c.006 1.718.395 3.191 1.163 4.412.769 1.229 1.868 2.17 3.305 2.832 1.439.654 3.171.984 5.19.991 2.062-.007 3.815-.337 5.252-.991 1.444-.662 2.544-1.603 3.306-2.832.755-1.221 1.135-2.694 1.142-4.412v-7.028c-.007-1.732-.387-3.212-1.142-4.448-.762-1.229-1.862-2.177-3.306-2.831-1.437-.661-3.19-.992-5.252-.999-2.019.007-3.751.338-5.19.999-1.437.654-2.536 1.602-3.305 2.831-.768 1.236-1.157 2.716-1.163 4.448v7.028Zm15.521 0c0 .992-.238 1.847-.704 2.551-.467.704-1.136 1.25-2.013 1.624-.868.374-1.918.568-3.146.568-1.215 0-2.249-.194-3.119-.568-.87-.374-1.531-.92-1.998-1.624-.467-.704-.697-1.559-.705-2.551v-7.071c.008-.999.238-1.847.705-2.551.467-.711 1.128-1.25 1.998-1.624.87-.374 1.904-.568 3.119-.568 1.228 0 2.278.194 3.146.568.877.374 1.546.913 2.013 1.624.466.704.704 1.552.704 2.551v7.071Zm24.318-14.659c-.366-.007-.625.064-.791.208-.165.151-.244.424-.244.826v8.063h-10.909v-8.063c.008-.402-.065-.675-.208-.826-.15-.144-.424-.215-.826-.208h-1.811c-.402-.007-.676.064-.827.208-.144.151-.215.424-.208.826v20.179c0 .69.345 1.035 1.035 1.035h1.811c.402.007.676-.065.826-.209.143-.151.216-.424.208-.826v-8.537h10.909v8.537c0 .402.079.675.244.826.166.144.425.216.791.209h1.81c.366.007.625-.065.791-.209.165-.151.244-.424.244-.826v-20.179c0-.402-.079-.675-.244-.826-.166-.144-.425-.215-.791-.208h-1.81Zm11.554 0c-.402-.007-.674.064-.826.208-.143.151-.216.424-.208.826v6.727c0 2.242-.108 4.117-.33 5.626-.23 1.509-.575 2.652-1.05 3.428-.308.51-.59.905-.848 1.193a4.173 4.173 0 0 1-.819.718c-.287.187-.639.381-1.049.59-.238.151-.388.323-.453.524-.065.194-.043.424.065.683l.905 1.725c.151.28.324.46.532.546.202.086.439.079.719-.029.582-.28 1.107-.575 1.573-.884.46-.316.898-.697 1.308-1.15.416-.452.834-1.02 1.257-1.717.648-1.035 1.129-2.479 1.452-4.319.324-1.84.489-4.067.489-6.676v-4.441h8.322v17.635c-.007.402.064.675.208.826.151.144.424.216.827.209h1.767c.367.007.626-.065.791-.209.165-.151.243-.424.243-.826v-20.179c0-.402-.078-.675-.243-.826-.165-.144-.424-.215-.791-.208h-13.841Zm19.489 3.88c-.173.345-.215.64-.122.877.087.244.317.438.683.589l1.337.604c.265.1.473.151.617.151a.551.551 0 0 0 .389-.159 4.18 4.18 0 0 0 .416-.51c.54-.884 1.251-1.545 2.141-1.976.884-.438 1.955-.654 3.206-.654 1.257 0 2.263.201 3.017.589a3.468 3.468 0 0 1 1.625 1.732c.33.769.496 1.703.488 2.81v1.638a35.72 35.72 0 0 0-2.522-.229 38.456 38.456 0 0 0-2.393-.072c-2.307-.008-4.16.208-5.576.646-1.416.439-2.443 1.15-3.09 2.142-.64.999-.956 2.321-.949 3.981 0 1.186.173 2.213.51 3.076.345.862.849 1.559 1.517 2.098.667.56 1.623.977 2.867 1.257 1.243.281 2.759.424 4.548.424 1.617 0 3.04-.093 4.276-.287 1.23-.187 2.278-.467 3.14-.834a3.71 3.71 0 0 0 .942-.532c.223-.186.38-.431.474-.732.094-.302.136-.697.136-1.193v-11.254c.008-1.803-.28-3.355-.868-4.656-.59-1.294-1.538-2.293-2.847-2.997-1.314-.697-3.046-1.049-5.209-1.056-2.134 0-3.931.374-5.397 1.128-1.458.755-2.579 1.89-3.356 3.399Zm13.797 14.315c0 .237-.05.431-.158.589a1.073 1.073 0 0 1-.489.359c-.991.345-2.587.518-4.786.518-1.329 0-2.37-.13-3.132-.396-.763-.258-1.309-.661-1.625-1.193-.316-.539-.466-1.214-.46-2.033-.006-.848.159-1.538.496-2.07.338-.532.891-.927 1.667-1.178.784-.252 1.826-.374 3.14-.374.627 0 1.387.029 2.286.094.898.057 1.919.143 3.061.251v5.433Zm25.137-25.827c.065-.216.065-.402-.007-.553-.08-.158-.23-.288-.467-.396l-1.509-.56c-.432-.129-.734 0-.906.388-.56 1.897-1.811 2.846-3.752 2.846-.969 0-1.759-.237-2.37-.712-.611-.474-1.057-1.185-1.337-2.134-.086-.194-.215-.316-.387-.366-.173-.051-.389-.043-.648.021l-1.337.517c-.236.065-.387.18-.466.345-.072.166-.072.367-.007.604.496 1.531 1.286 2.673 2.371 3.435 1.085.755 2.48 1.135 4.181 1.135 1.726 0 3.142-.38 4.241-1.135 1.106-.762 1.905-1.904 2.4-3.435Zm-15.22 7.632c-.402-.007-.676.064-.826.208-.144.151-.216.424-.209.826v20.179c0 .69.345 1.035 1.035 1.035h1.811c.431 0 .776-.173 1.034-.518l9.271-12.633c.496-.711.948-1.394 1.351-2.048a19.83 19.83 0 0 0 1.063-1.919h.13a35.331 35.331 0 0 0-.525 3.112 23.632 23.632 0 0 0-.165 2.623v10.348c-.007.402.064.675.207.826.152.144.425.216.828.209h1.81c.403.007.676-.065.826-.209.144-.151.217-.424.209-.826v-20.179c.008-.402-.065-.675-.209-.826-.15-.144-.423-.215-.826-.208h-1.81c-.216 0-.41.043-.575.129-.166.086-.31.216-.417.388l-9.4 12.762a20.183 20.183 0 0 0-2.328 3.881h-.13c.238-.927.41-1.854.525-2.788.108-.927.165-1.869.165-2.817v-10.521c.008-.402-.064-.675-.207-.826-.151-.144-.425-.215-.827-.208h-1.811Zm39.02 0c-.366-.007-.625.064-.791.208-.165.151-.243.424-.243.826v8.063h-10.909v-8.063c.007-.402-.065-.675-.209-.826-.15-.144-.424-.215-.826-.208h-1.81c-.403-.007-.676.064-.828.208-.143.151-.215.424-.207.826v20.179c0 .69.345 1.035 1.035 1.035h1.81c.402.007.676-.065.826-.209.144-.151.216-.424.209-.826v-8.537h10.909v8.537c0 .402.078.675.243.826.166.144.425.216.791.209h1.811c.367.007.625-.065.791-.209.165-.151.243-.424.243-.826v-20.179c0-.402-.078-.675-.243-.826-.166-.144-.424-.215-.791-.208H858.7Z"/><path fill-rule="evenodd" d="M192.271 249.904c-2.436-5.3-5.847-7.95-10.233-8.234h-18.127c-3.996 4.733-8.966 10.979-14.911 18.739 7.934-.059 16.536-.599 25.323.357 7.051.768 12.874 3.175 17.071 7.877.585-7.476.682-13.628.877-18.739Z" clip-rule="evenodd"/><path fill-rule="evenodd" d="M167.098 264.03v59.306h24.219v-49.192c-6.35-7.634-14.619-9.715-24.219-10.114ZM248.314 322.534c-10.906.917-23.178 2.25-33.363-2.739-5.754-2.818-10.324-6.804-13.658-11.956-7.025-10.86-8.203-35.605-.8-49.072 1.929-3.51 4.655-6.191 7.867-8.531 7.999-5.831 18.757-8.902 32.276-9.213-14.355 11.389-20.458 19.784-21.523 32.529-.589 7.046-1.054 20.45 4.888 25.25 1.52 1.227 3.28 2.269 5.272 2.97 10.002 3.518 26.049 1.625 35.285.679-6.005 10.041-12.207 16.933-16.244 20.083ZM324.578 242.34c10.906-.917 23.178-2.25 33.363 2.739 5.755 2.818 10.324 6.804 13.658 11.956 7.025 10.86 8.203 35.605.8 49.072-1.93 3.51-4.655 6.191-7.866 8.531-7.999 5.831-18.759 8.902-32.277 9.213 14.355-11.389 20.458-19.784 21.524-32.529.589-7.047 1.054-20.45-4.889-25.25-1.52-1.227-3.28-2.269-5.272-2.97-10.002-3.518-26.049-1.625-35.284-.68 6.004-10.04 12.207-16.932 16.243-20.082Z" clip-rule="evenodd"/><path fill-rule="evenodd" d="M253.335 323.125c11.47-9.575 18.658-20.175 20.359-34.233.503-4.149.435-8.347.834-12.509.778-8.128 2.773-16.317 8.897-22.509 7.461-7.546 18.597-11.338 35.179-12.556-13.679 12.263-18.693 22.276-20.686 37.83-.483 3.78-.574 7.612-1.194 11.37-3.489 21.134-20.852 33.524-43.389 32.607ZM270.246 267.984c-3.626-2.922-6.813-4.346-10.27-5.217-9.877-2.491-21.476-1.043-32.122-.713 5.93-10.47 12.081-17.06 18.231-20.428 5.131-.178 9.962-.166 14.545.086 5.313.292 9.626.895 14.554 2.931 3.212 1.327 5.228 2.591 6.045 3.793-6.078 5.784-9.738 12.373-10.983 19.548ZM299.933 296.89c3.723 2.922 6.996 4.346 10.545 5.217 10.141 2.49 22.051 1.043 32.982.713-6.089 10.47-12.404 17.059-18.718 20.427-5.269.179-10.231.167-14.935-.085-5.456-.292-9.884-.896-14.944-2.931-3.299-1.327-5.368-2.591-6.206-3.793 6.239-5.784 9.997-12.373 11.276-19.548Z" clip-rule="evenodd"/></g><defs><clipPath id="a"><path fill="#fff" d="M149 241.023h721v129.955H149z"/></clipPath></defs></svg>