<svg xmlns="http://www.w3.org/2000/svg" width="211" height="38" fill="none"><g clip-path="url(#a)"><path fill="#140A32" d="M78.301 10.85H73V1.188c.005-.239-.035-.413-.117-.511-.086-.098-.238-.147-.462-.141h-1.005c-.224-.006-.386.043-.478.141-.091.098-.137.272-.132.511v21.87c-.005.24.04.414.132.512.092.098.254.146.478.141h1.005c.224.006.376-.043.462-.141.082-.098.122-.272.117-.512V13.07h5.302v2.938c.005 1.713.32 3.177.955 4.395a6.448 6.448 0 0 0 2.793 2.786c1.224.647 2.727.974 4.51.979 1.762-.005 3.25-.332 4.469-.98a6.43 6.43 0 0 0 2.772-2.785c.635-1.218.95-2.682.955-4.395v-7.77c-.005-1.713-.32-3.176-.955-4.395a6.47 6.47 0 0 0-2.772-2.79C89.808.41 88.32.083 86.558.078c-1.782.005-3.285.331-4.509.973a6.488 6.488 0 0 0-2.793 2.791c-.635 1.219-.95 2.682-.955 4.396v2.611Zm14.26 5.158c0 1.278-.233 2.355-.696 3.247a4.643 4.643 0 0 1-2.03 2.024c-.89.468-1.981.697-3.276.702-1.3-.005-2.403-.234-3.296-.702a4.639 4.639 0 0 1-2.042-2.024c-.462-.892-.695-1.969-.695-3.247v-7.77c0-1.277.233-2.36.695-3.247a4.68 4.68 0 0 1 2.042-2.03c.893-.462 1.996-.695 3.296-.695 1.294 0 2.386.233 3.275.696a4.683 4.683 0 0 1 2.031 2.03c.463.886.696 1.968.696 3.247v7.769ZM99.478.536c-.224-.006-.386.043-.477.141-.092.098-.137.272-.132.511v21.87c-.005.24.04.414.132.512.091.098.253.146.477.141h1.006c.223.006.375-.043.462-.141.081-.098.122-.272.117-.512v-8.062h6.551c1.427-.006 2.656-.294 3.682-.865 1.025-.566 1.813-1.388 2.366-2.465.554-1.071.833-2.366.838-3.884-.005-1.518-.284-2.818-.838-3.895-.553-1.077-1.341-1.904-2.366-2.481-1.026-.577-2.255-.865-3.682-.87h-8.136Zm1.585 12.273V2.755h6.368c.99.006 1.843.207 2.554.604.711.403 1.265.98 1.646 1.725.386.75.579 1.648.584 2.698-.005 1.05-.198 1.948-.584 2.698a4.03 4.03 0 0 1-1.646 1.72c-.711.402-1.564.603-2.554.609h-6.368ZM132.6.536a.87.87 0 0 0-.366.076.716.716 0 0 0-.274.25l-8.776 13.677a68.388 68.388 0 0 0-1.93 3.226 60.644 60.644 0 0 0-1.513 2.91h-.091c.122-1.126.213-2.274.274-3.449.061-1.17.091-2.36.091-3.568V1.188c.005-.239-.035-.413-.117-.511-.086-.098-.238-.147-.462-.141h-1.005c-.223-.006-.386.043-.478.141-.091.098-.137.272-.132.511v21.87c-.005.24.041.414.132.512.092.098.255.146.478.141h1.005c.137 0 .26-.033.366-.092a.87.87 0 0 0 .274-.267l8.989-14.003a125.235 125.235 0 0 0 1.894-3.21 48.901 48.901 0 0 0 1.367-2.568h.06a58.457 58.457 0 0 0-.299 3.4 54.92 54.92 0 0 0-.097 3.26v12.827c0 .24.041.414.132.512.097.098.254.146.478.141h1.005c.223.006.386-.043.478-.141.091-.098.137-.272.132-.512V1.188c.005-.239-.041-.413-.132-.511-.092-.098-.255-.147-.478-.141H132.6Zm5.728 15.439c.005 1.714.33 3.182.98 4.401a6.65 6.65 0 0 0 2.834 2.807c1.239.648 2.752.98 4.535.985 1.529 0 2.834-.212 3.921-.642 1.081-.424 1.97-1.06 2.661-1.904.696-.849 1.224-1.904 1.584-3.166.061-.196.061-.36 0-.495-.061-.13-.183-.24-.365-.321l-.945-.392a.675.675 0 0 0-.478.027c-.132.07-.238.202-.314.397-.279.99-.671 1.801-1.173 2.438a4.465 4.465 0 0 1-1.95 1.414c-.798.305-1.778.457-2.941.457-1.315-.005-2.422-.245-3.336-.713a4.783 4.783 0 0 1-2.072-2.045c-.478-.887-.712-1.959-.716-3.215v-7.77c0-1.267.233-2.344.7-3.23a4.715 4.715 0 0 1 2.062-2.035c.909-.468 2.031-.707 3.362-.707 1.143-.006 2.108.146 2.895.446.792.299 1.437.761 1.94 1.381.498.62.889 1.415 1.168 2.383.076.18.178.3.305.365.126.065.289.076.487.027l.945-.36c.223-.075.36-.179.411-.304.051-.125.035-.304-.046-.544-.36-1.251-.888-2.29-1.579-3.117s-1.574-1.442-2.651-1.85C149.475.28 148.185.08 146.677.08c-1.803.005-3.321.331-4.56.984-1.24.653-2.184 1.589-2.824 2.807-.64 1.219-.96 2.688-.965 4.402v7.703ZM156.976.535c-.223-.005-.386.044-.477.142-.092.098-.137.272-.132.511v.914c-.005.24.04.408.132.512.091.098.254.141.477.141h6.155v20.303c-.005.24.041.414.132.512.092.098.254.146.478.141h1.005c.224.006.386-.043.478-.141.091-.098.137-.272.132-.512V2.755h6.155c.223 0 .386-.043.477-.141.091-.104.137-.272.132-.512v-.914c.005-.239-.041-.413-.132-.511-.091-.098-.254-.147-.477-.141h-14.535Zm17.277 15.44c.005 1.714.33 3.182.975 4.401.645 1.219 1.59 2.154 2.834 2.807 1.244.648 2.768.98 4.57.985 1.793-.005 3.307-.337 4.551-.985a6.616 6.616 0 0 0 2.829-2.807c.639-1.219.964-2.687.969-4.401V8.272c-.005-1.714-.33-3.183-.969-4.402a6.616 6.616 0 0 0-2.829-2.807c-1.244-.653-2.758-.979-4.551-.984-1.802.005-3.326.331-4.57.984-1.244.653-2.189 1.589-2.834 2.807-.645 1.219-.97 2.688-.975 4.402v7.703Zm14.535 0c0 1.278-.239 2.361-.707 3.253a4.738 4.738 0 0 1-2.076 2.046c-.914.468-2.042.702-3.373.707-1.33-.005-2.457-.24-3.377-.707a4.774 4.774 0 0 1-2.092-2.046c-.477-.892-.716-1.975-.716-3.253V8.272c0-1.279.239-2.361.716-3.254a4.745 4.745 0 0 1 2.092-2.045c.92-.468 2.047-.707 3.377-.707 1.331 0 2.459.239 3.373.707a4.709 4.709 0 0 1 2.076 2.045c.468.893.707 1.975.707 3.254v7.703Zm6.917-15.44c-.224-.005-.387.044-.478.142-.091.098-.137.272-.132.511v21.87c-.005.24.041.414.132.512.091.098.254.146.478.141h8.927c1.295-.005 2.418-.25 3.357-.74a5.136 5.136 0 0 0 2.174-2.122c.513-.93.772-2.05.777-3.372 0-1.567-.305-2.824-.909-3.776-.61-.947-1.514-1.594-2.717-1.937V11.7c.959-.44 1.675-1.099 2.153-1.975.472-.876.711-1.958.711-3.248-.005-1.278-.234-2.355-.691-3.237a4.602 4.602 0 0 0-2-2.013c-.874-.457-1.936-.69-3.19-.69h-8.592Zm12.218 6.235c-.005 1.355-.335 2.372-1 3.057-.666.68-1.631 1.023-2.9 1.023h-6.734V2.755h6.734c1.295 0 2.27.332 2.92 1.001.655.67.98 1.676.98 3.014Zm-.335 13.644c-.35.36-.782.631-1.295.81-.513.18-1.097.267-1.752.267h-7.252v-8.52h7.252c.655 0 1.239.088 1.752.268.513.18.945.451 1.295.81.35.376.609.827.782 1.355.173.527.254 1.142.254 1.844 0 .702-.081 1.316-.254 1.839a3.366 3.366 0 0 1-.782 1.327Z"/><path fill="#140A32" d="M78.301 10.85H73V1.188c.005-.239-.035-.413-.117-.511-.086-.098-.238-.147-.462-.141h-1.005c-.224-.006-.386.043-.478.141-.091.098-.137.272-.132.511v21.87c-.005.24.04.414.132.512.092.098.254.146.478.141h1.005c.224.006.376-.043.462-.141.082-.098.122-.272.117-.512V13.07h5.302v2.938c.005 1.713.32 3.177.955 4.395a6.448 6.448 0 0 0 2.793 2.786c1.224.647 2.727.974 4.51.979 1.762-.005 3.25-.332 4.469-.98a6.43 6.43 0 0 0 2.772-2.785c.635-1.218.95-2.682.955-4.395v-7.77c-.005-1.713-.32-3.176-.955-4.395a6.47 6.47 0 0 0-2.772-2.79C89.808.41 88.32.083 86.558.078c-1.782.005-3.285.331-4.509.973a6.488 6.488 0 0 0-2.793 2.791c-.635 1.219-.95 2.682-.955 4.396v2.611Zm14.26 5.158c0 1.278-.233 2.355-.696 3.247a4.643 4.643 0 0 1-2.03 2.024c-.89.468-1.981.697-3.276.702-1.3-.005-2.403-.234-3.296-.702a4.639 4.639 0 0 1-2.042-2.024c-.462-.892-.695-1.969-.695-3.247v-7.77c0-1.277.233-2.36.695-3.247a4.68 4.68 0 0 1 2.042-2.03c.893-.462 1.996-.695 3.296-.695 1.294 0 2.386.233 3.275.696a4.683 4.683 0 0 1 2.031 2.03c.463.886.696 1.968.696 3.247v7.769ZM99.478.536c-.224-.006-.386.043-.477.141-.092.098-.137.272-.132.511v21.87c-.005.24.04.414.132.512.091.098.253.146.477.141h1.006c.223.006.375-.043.462-.141.081-.098.122-.272.116-.512v-8.062h6.552c1.427-.006 2.656-.294 3.682-.865 1.025-.566 1.813-1.388 2.366-2.465.554-1.071.833-2.366.838-3.884-.005-1.518-.284-2.818-.838-3.895-.553-1.077-1.341-1.904-2.366-2.481-1.026-.577-2.255-.865-3.682-.87h-8.136Zm1.584 12.273V2.755h6.369c.99.006 1.843.207 2.554.604.711.403 1.265.98 1.646 1.725.386.75.579 1.648.584 2.698-.005 1.05-.198 1.948-.584 2.698a4.03 4.03 0 0 1-1.646 1.72c-.711.402-1.564.603-2.554.609h-6.369ZM132.6.536a.87.87 0 0 0-.366.076.716.716 0 0 0-.274.25l-8.776 13.677a68.388 68.388 0 0 0-1.93 3.226 60.644 60.644 0 0 0-1.513 2.91h-.091c.122-1.126.213-2.274.274-3.449.061-1.17.091-2.36.091-3.568V1.188c.005-.239-.035-.413-.117-.511-.086-.098-.238-.147-.462-.141h-1.005c-.223-.006-.386.043-.478.141-.091.098-.137.272-.132.511v21.87c-.005.24.041.414.132.512.092.098.255.146.478.141h1.005c.137 0 .26-.033.366-.092a.87.87 0 0 0 .274-.267l8.989-14.003a125.235 125.235 0 0 0 1.894-3.21 48.901 48.901 0 0 0 1.367-2.568h.06a58.457 58.457 0 0 0-.299 3.4 54.92 54.92 0 0 0-.097 3.26v12.827c0 .24.041.414.132.512.097.098.254.146.478.141h1.005c.223.006.386-.043.478-.141.091-.098.137-.272.132-.512V1.188c.005-.239-.041-.413-.132-.511-.092-.098-.255-.147-.478-.141H132.6Zm5.728 15.439c.005 1.714.33 3.182.98 4.401a6.65 6.65 0 0 0 2.834 2.807c1.239.648 2.752.98 4.535.985 1.529 0 2.834-.212 3.921-.642 1.081-.424 1.97-1.06 2.661-1.904.696-.849 1.224-1.904 1.584-3.166.061-.196.061-.36 0-.495-.061-.13-.183-.24-.365-.321l-.945-.392a.675.675 0 0 0-.478.027c-.132.07-.238.202-.314.397-.279.99-.671 1.801-1.174 2.438a4.457 4.457 0 0 1-1.949 1.414c-.798.305-1.778.457-2.941.457-1.315-.005-2.422-.245-3.336-.713a4.783 4.783 0 0 1-2.072-2.045c-.478-.887-.712-1.959-.716-3.215v-7.77c0-1.267.233-2.344.7-3.23a4.715 4.715 0 0 1 2.062-2.035c.909-.468 2.031-.707 3.362-.707 1.143-.006 2.108.146 2.895.446.792.299 1.437.761 1.94 1.381.498.62.889 1.415 1.168 2.383.076.18.178.3.305.365.126.065.289.076.487.027l.945-.36c.223-.075.36-.179.411-.304.051-.125.035-.304-.046-.544-.36-1.251-.888-2.29-1.579-3.117s-1.574-1.442-2.651-1.85C149.475.28 148.185.08 146.677.08c-1.803.005-3.321.331-4.56.984-1.24.653-2.184 1.589-2.824 2.807-.64 1.219-.96 2.688-.965 4.402v7.703ZM156.976.535c-.223-.005-.386.044-.477.142-.092.098-.137.272-.132.511v.914c-.005.24.04.408.132.512.091.098.254.141.477.141h6.155v20.303c-.005.24.041.414.132.512.092.098.254.146.478.141h1.005c.224.006.386-.043.478-.141.091-.098.137-.272.132-.512V2.755h6.155c.223 0 .386-.043.477-.141.091-.104.137-.272.132-.512v-.914c.005-.239-.041-.413-.132-.511-.091-.098-.254-.147-.477-.141h-14.535Zm17.277 15.44c.005 1.714.33 3.182.975 4.401.645 1.219 1.59 2.154 2.834 2.807 1.244.648 2.768.98 4.57.985 1.793-.005 3.307-.337 4.551-.985a6.616 6.616 0 0 0 2.829-2.807c.639-1.219.964-2.687.969-4.401V8.272c-.005-1.714-.33-3.183-.969-4.402a6.616 6.616 0 0 0-2.829-2.807c-1.244-.653-2.758-.979-4.551-.984-1.802.005-3.326.331-4.57.984-1.244.653-2.189 1.589-2.834 2.807-.645 1.219-.97 2.688-.975 4.402v7.703Zm14.535 0c0 1.278-.239 2.361-.707 3.253a4.738 4.738 0 0 1-2.076 2.046c-.914.468-2.042.702-3.373.707-1.33-.005-2.457-.24-3.377-.707a4.774 4.774 0 0 1-2.092-2.046c-.477-.892-.716-1.975-.716-3.253V8.272c0-1.279.239-2.361.716-3.254a4.745 4.745 0 0 1 2.092-2.045c.92-.468 2.047-.707 3.377-.707 1.331 0 2.459.239 3.373.707a4.709 4.709 0 0 1 2.076 2.045c.468.893.707 1.975.707 3.254v7.703Zm6.917-15.44c-.224-.005-.387.044-.478.142-.091.098-.137.272-.132.511v21.87c-.005.24.041.414.132.512.091.098.254.146.478.141h8.927c1.295-.005 2.418-.25 3.357-.74a5.136 5.136 0 0 0 2.174-2.122c.513-.93.772-2.05.777-3.372 0-1.567-.305-2.824-.909-3.776-.61-.947-1.514-1.594-2.717-1.937V11.7c.959-.44 1.675-1.099 2.153-1.975.472-.876.711-1.958.711-3.248-.005-1.278-.234-2.355-.691-3.237a4.602 4.602 0 0 0-2-2.013c-.874-.457-1.936-.69-3.19-.69h-8.592Zm12.218 6.235c-.005 1.355-.335 2.372-1 3.057-.666.68-1.631 1.023-2.9 1.023h-6.734V2.755h6.734c1.295 0 2.27.332 2.92 1.001.655.67.98 1.676.98 3.014Zm-.335 13.644c-.35.36-.782.631-1.295.81-.513.18-1.097.267-1.752.267h-7.252v-8.52h7.252c.655 0 1.239.088 1.752.268.513.18.945.451 1.295.81.35.376.609.827.782 1.355.173.527.254 1.142.254 1.844 0 .702-.081 1.316-.254 1.839a3.366 3.366 0 0 1-.782 1.327ZM6.387 31.054H4.962V28.67c.002-.118-.02-.197-.061-.242-.045-.042-.124-.063-.242-.06h-.53c-.118-.003-.198.018-.242.06-.042.045-.063.124-.061.242v5.9c0 .202.1.303.303.303h.53c.118.002.197-.019.242-.061.042-.044.063-.124.06-.242v-2.47h1.426v.566c.003.503.112.931.326 1.289.217.357.53.63.943.82.41.188.908.285 1.495.287.59-.002 1.091-.099 1.505-.288.413-.189.728-.462.945-.82.214-.357.323-.785.326-1.288v-2.092c-.002-.502-.112-.931-.326-1.288a2.089 2.089 0 0 0-.945-.82c-.414-.191-.914-.286-1.505-.288-.587.002-1.085.097-1.495.288-.413.19-.726.462-.943.82-.214.357-.324.786-.326 1.288v.479Zm4.404 1.613c0 .286-.067.532-.198.738-.13.204-.317.361-.563.47-.244.11-.537.167-.88.167-.34 0-.632-.057-.876-.166a1.24 1.24 0 0 1-.555-.47 1.368 1.368 0 0 1-.196-.739v-2.092a1.38 1.38 0 0 1 .196-.744c.128-.204.313-.36.555-.469a2.17 2.17 0 0 1 .877-.161c.525.002.931.121 1.213.36.282.238.425.577.427 1.014v2.092Zm2.978-4.122a1.173 1.173 0 0 0-.307.166.446.446 0 0 0-.147.218c-.028.087-.04.198-.038.335v8.08c-.002.108.02.184.065.232.044.048.12.071.225.071h.53c.118.003.198-.018.242-.06.042-.045.063-.125.06-.242v-2.622c.329.113.63.197.9.254.274.057.52.086.741.086 1.792 0 2.688-.857 2.688-2.572v-1.778c0-.844-.221-1.479-.66-1.901-.442-.423-1.1-.633-1.977-.633-.461 0-.884.032-1.27.093a5.444 5.444 0 0 0-1.052.273Zm3.823 3.908c0 .523-.134.916-.408 1.181-.273.263-.683.395-1.232.395-.202 0-.431-.027-.69-.084a7.485 7.485 0 0 1-.862-.244v-4.034c-.002-.074.008-.128.033-.166.024-.038.076-.07.156-.099a4.658 4.658 0 0 1 1.338-.189c.555 0 .971.128 1.249.387.277.256.416.64.416 1.151v1.702Zm2.801-4.085c-.117-.002-.197.02-.242.061-.042.045-.063.124-.06.242v5.9c0 .202.1.303.302.303h.53a.36.36 0 0 0 .303-.151l2.713-3.694c.145-.208.277-.408.395-.6.12-.19.223-.377.311-.56h.038c-.07.328-.12.63-.153.91a6.86 6.86 0 0 0-.049.767v3.025c-.002.118.02.198.061.242.045.042.124.063.242.06h.53c.118.003.198-.018.242-.06.042-.044.063-.124.061-.242v-5.9c.002-.118-.019-.197-.06-.242-.045-.042-.125-.063-.243-.06h-.53a.36.36 0 0 0-.168.037.315.315 0 0 0-.122.114l-2.75 3.732a5.887 5.887 0 0 0-.682 1.134h-.038a6.474 6.474 0 0 0 .202-1.639v-3.076c.002-.118-.019-.197-.06-.242-.045-.042-.125-.063-.243-.06h-.53Zm12.48 5.46V28.67c0-.118-.024-.197-.072-.242-.049-.042-.124-.063-.232-.06h-4.163c-.108-.003-.183.018-.232.06-.048.045-.071.124-.071.242v1.904c0 .523-.02.97-.055 1.345-.038.371-.09.672-.16.899a2.736 2.736 0 0 1-.267.599 1.57 1.57 0 0 1-.351.41h-.34c-.106-.003-.181.02-.226.067-.044.048-.067.13-.065.248v2.18c-.002.108.021.184.065.232.044.048.12.072.225.072h.492c.108 0 .188-.026.238-.077.053-.05.078-.125.078-.226v-1.45h4.984v1.45c0 .107.023.183.071.23.049.05.127.072.232.072h.492c.118 0 .198-.023.242-.071.042-.048.063-.124.06-.231v-2.181c.003-.118-.018-.2-.06-.248-.044-.047-.124-.07-.242-.068h-.644ZM29.2 29.415h2.536v4.413H28.57c.208-.303.366-.72.47-1.25.108-.53.16-1.178.16-1.94v-1.223Zm5.917-1.047c-.117-.002-.197.02-.242.061-.042.045-.063.124-.06.242v5.9c0 .202.1.303.302.303h.53a.36.36 0 0 0 .303-.151l2.713-3.694c.145-.208.277-.408.395-.6.12-.19.223-.377.312-.56h.037c-.07.328-.12.63-.153.91a6.86 6.86 0 0 0-.049.767v3.025c-.002.118.02.198.062.242.044.042.123.063.241.06h.53c.118.003.198-.018.242-.06.042-.044.063-.124.061-.242v-5.9c.002-.118-.019-.197-.06-.242-.045-.042-.125-.063-.243-.06h-.53a.361.361 0 0 0-.168.037.32.32 0 0 0-.122.114l-2.75 3.732a5.887 5.887 0 0 0-.682 1.134h-.038a6.474 6.474 0 0 0 .202-1.639v-3.076c.002-.118-.019-.197-.06-.242-.045-.042-.125-.063-.243-.06h-.53Zm6.41 1.829c-.002.8.204 1.399.623 1.798.418.397 1.064.597 1.938.597.745 0 1.275-.063 1.59-.19v2.17c0 .117.023.197.072.24.048.043.124.064.231.062h.53c.108.002.183-.019.232-.061.048-.044.071-.124.071-.242v-5.9c0-.118-.023-.197-.071-.242-.049-.042-.124-.063-.232-.06h-.53c-.107-.003-.183.018-.23.06-.05.045-.073.124-.073.242v2.673c-.378.151-.857.227-1.438.227-1.06 0-1.59-.467-1.59-1.4v-1.5c.002-.107-.02-.183-.065-.231-.044-.049-.12-.072-.225-.072h-.53c-.118-.002-.198.02-.242.061-.042.045-.063.124-.06.242v1.526Zm6.625 2.244c0 .54.103 1.006.309 1.397.206.39.515.691.93.904.416.212.935.319 1.562.321.656 0 1.211-.107 1.663-.324.454-.214.804-.54 1.05-.975.138-.214.1-.378-.114-.491l-.34-.177c-.106-.07-.196-.094-.27-.075-.076.018-.15.081-.223.189a1.64 1.64 0 0 1-.696.653c-.294.145-.648.217-1.057.217-.551-.002-.97-.133-1.258-.393-.286-.259-.431-.633-.433-1.12v-.605h4.113c.158 0 .276-.038.351-.112.078-.076.116-.185.116-.33v-.731c0-.525-.11-.981-.324-1.372a2.217 2.217 0 0 0-.959-.908c-.423-.216-.946-.326-1.569-.33-.618.002-1.14.108-1.564.318a2.158 2.158 0 0 0-.96.918c-.218.401-.327.889-.327 1.462v1.564Zm4.58-1.35h-3.457v-.365c0-.334.067-.618.197-.855a1.31 1.31 0 0 1 .585-.542c.257-.126.572-.192.946-.192.564.003.993.141 1.285.416.295.274.442.665.444 1.173v.366Zm2.17 1.425c0 .54.103.998.307 1.379.204.378.509.666.917.865.408.2.917.3 1.527.303 1.426 0 2.347-.58 2.763-1.74.038-.1.038-.187.002-.256-.037-.072-.11-.128-.216-.172l-.442-.127c-.116-.046-.206-.052-.267-.023-.061.032-.116.105-.162.225-.12.366-.315.641-.591.824-.273.183-.626.273-1.062.273-.538-.004-.944-.135-1.222-.395-.277-.26-.416-.628-.418-1.105v-1.904c.002-.475.14-.843.418-1.099.278-.256.684-.387 1.222-.389.436 0 .789.088 1.062.265.271.176.465.441.578.794.045.114.101.187.173.219.07.034.156.027.257-.017l.441-.139c.107-.038.177-.092.21-.161.032-.072.03-.16-.008-.267-.177-.561-.486-.984-.93-1.265-.441-.284-1.02-.425-1.733-.425-.626.002-1.15.103-1.568.3-.419.2-.732.488-.942.867-.21.376-.316.832-.316 1.367v1.803Zm11.104-.24a2.532 2.532 0 0 0-.452-.663 1.568 1.568 0 0 0-.558-.37l2.02-2.522c.094-.12.126-.208.094-.266-.032-.057-.126-.087-.284-.087h-.48a2.092 2.092 0 0 0-.281.01.36.36 0 0 0-.173.064.634.634 0 0 0-.139.153l-1.88 2.434h-1.11V28.67c.002-.118-.02-.197-.067-.242-.049-.042-.13-.063-.248-.06h-.505c-.118-.003-.2.018-.248.06-.046.045-.07.124-.067.242v5.888c-.003.117.02.2.067.248.048.046.13.069.248.067h.505c.117.002.2-.021.248-.067.046-.049.07-.13.067-.248v-2.484h1.148c.196 0 .364.021.505.067.141.046.26.12.362.223.1.1.191.235.269.403l.87 1.829a.671.671 0 0 0 .11.178c.036.04.086.067.147.08a1.4 1.4 0 0 0 .26.019h.493c.145 0 .231-.027.26-.082.03-.057.005-.147-.07-.271l-1.111-2.244Zm2.498-3.908c-.118-.002-.197.02-.242.061-.042.045-.063.124-.06.242v5.9c0 .202.1.303.302.303h.53a.36.36 0 0 0 .303-.151l2.713-3.694c.145-.208.277-.408.395-.6a5.76 5.76 0 0 0 .311-.56h.038c-.07.328-.12.63-.153.91a6.86 6.86 0 0 0-.048.767v3.025c-.003.118.019.198.06.242.044.042.124.063.242.06h.53c.118.003.198-.018.242-.06.042-.044.063-.124.061-.242v-5.9c.002-.118-.019-.197-.06-.242-.045-.042-.125-.063-.243-.06h-.53a.36.36 0 0 0-.168.037.32.32 0 0 0-.122.114l-2.75 3.732a5.882 5.882 0 0 0-.682 1.134h-.038a6.528 6.528 0 0 0 .202-1.639v-3.076c.002-.118-.019-.197-.06-.242-.045-.042-.125-.063-.243-.06h-.53Zm6.562 4.073c0 .54.103 1.006.309 1.397.206.39.515.691.93.904.416.212.935.319 1.562.321.656 0 1.21-.107 1.663-.324.454-.214.804-.54 1.05-.975.138-.214.1-.378-.114-.491l-.34-.177c-.106-.07-.196-.094-.27-.075-.076.018-.15.081-.223.189-.17.29-.404.508-.696.653-.294.145-.648.217-1.058.217-.55-.002-.97-.133-1.257-.393-.286-.259-.431-.633-.433-1.12v-.605h4.113c.158 0 .276-.038.351-.112.078-.076.116-.185.116-.33v-.731c0-.525-.11-.981-.324-1.372a2.214 2.214 0 0 0-.959-.908c-.423-.216-.946-.326-1.569-.33-.618.002-1.14.108-1.565.318a2.156 2.156 0 0 0-.958.918c-.219.401-.328.889-.328 1.462v1.564Zm4.58-1.35H76.19v-.365c0-.334.067-.618.197-.855.133-.235.328-.418.585-.542.257-.126.572-.192.946-.192.564.003.993.141 1.285.416.295.274.442.665.444 1.173v.366Zm9.64 1.186a2.54 2.54 0 0 0-.452-.664 1.566 1.566 0 0 0-.558-.37l2.02-2.522c.094-.12.126-.208.094-.266-.031-.057-.126-.087-.284-.087h-.48a2.09 2.09 0 0 0-.281.01.361.361 0 0 0-.173.064.634.634 0 0 0-.138.153l-1.88 2.434h-1.111V28.67c.002-.118-.021-.197-.067-.242-.048-.042-.13-.063-.249-.06h-.504c-.118-.003-.2.018-.248.06-.046.045-.07.124-.067.242v5.888c-.003.117.02.2.067.248.048.046.13.069.248.067h.504c.118.002.2-.021.249-.067.046-.049.07-.13.067-.248v-2.484h1.148c.196 0 .364.021.505.067.14.046.26.12.362.223.1.1.191.235.269.403l.87 1.829a.682.682 0 0 0 .11.178c.036.04.086.067.147.08.063.013.15.019.261.019h.492c.145 0 .231-.027.26-.082.03-.057.005-.147-.07-.271l-1.111-2.244Zm1.994.378c.002.502.115.933.34 1.29.225.36.547.635.968.828.42.191.927.288 1.518.29.603-.002 1.117-.099 1.537-.29.423-.193.745-.469.968-.828.22-.357.332-.788.334-1.29V30.6c-.002-.507-.113-.94-.334-1.3a2.146 2.146 0 0 0-.968-.829c-.42-.193-.934-.29-1.537-.292-.59.002-1.098.099-1.518.292-.421.192-.743.469-.968.828-.225.362-.338.794-.34 1.3v2.056Zm4.542 0c0 .29-.07.54-.206.746a1.295 1.295 0 0 1-.59.475c-.253.109-.56.166-.92.166a2.3 2.3 0 0 1-.913-.166 1.294 1.294 0 0 1-.584-.475 1.34 1.34 0 0 1-.207-.746v-2.068c.003-.292.07-.54.207-.746.136-.208.33-.365.584-.475.255-.109.558-.165.913-.165.36 0 .667.056.92.165.258.11.453.267.59.475.136.206.206.454.206.746v2.068Zm7.116-4.287c-.107-.002-.182.02-.231.061-.048.045-.071.124-.071.242v2.358h-3.193V28.67c.002-.118-.019-.197-.06-.242-.045-.042-.125-.063-.243-.06h-.53c-.117-.003-.197.018-.242.06-.041.045-.062.124-.06.242v5.9c0 .202.1.303.303.303h.53c.117.002.197-.019.241-.061.042-.044.064-.124.061-.242v-2.496h3.193v2.496c0 .118.023.198.071.242.049.042.124.063.231.06h.53c.107.003.183-.018.232-.06.048-.044.071-.124.071-.242v-5.9c0-.118-.023-.197-.071-.242-.049-.042-.125-.063-.232-.06h-.53Zm2.183 4.148c0 .54.103.998.307 1.379.204.378.509.666.917.865.408.2.917.3 1.527.303 1.426 0 2.347-.58 2.763-1.74.038-.1.038-.187.003-.256a.406.406 0 0 0-.217-.172l-.442-.127c-.116-.046-.206-.052-.267-.023-.061.032-.115.105-.162.225-.12.366-.315.641-.591.824-.273.183-.626.273-1.062.273-.538-.004-.944-.135-1.222-.395-.277-.26-.416-.628-.418-1.105v-1.904c.002-.475.141-.843.418-1.099.278-.256.684-.387 1.222-.389.436 0 .789.088 1.062.265.271.176.465.441.579.794.044.114.101.187.172.219.069.034.156.027.257-.017l.441-.139c.107-.038.177-.092.211-.161.031-.072.029-.16-.009-.267-.176-.561-.486-.984-.929-1.265-.442-.284-1.02-.425-1.733-.425-.627.002-1.15.103-1.569.3-.418.2-.732.488-.942.867-.21.376-.316.832-.316 1.367v1.803Zm11.344-4.148c-.107-.002-.183.02-.231.061-.049.045-.072.124-.072.242v4.854a6.151 6.151 0 0 1-.831.2 4.874 4.874 0 0 1-.784.065c-.53 0-.928-.127-1.192-.377-.265-.252-.398-.626-.398-1.124v-3.618c.002-.107-.021-.183-.065-.231-.044-.049-.12-.072-.225-.072h-.53c-.118-.002-.198.02-.242.061-.042.045-.063.124-.061.242v3.656c0 .832.214 1.456.642 1.872.428.416 1.068.625 1.919.625.265 0 .545-.024.842-.068a8 8 0 0 0 .925-.197v.68c0 .555-.135.971-.406 1.249-.269.277-.673.416-1.209.416-.36 0-.669-.07-.929-.21a1.618 1.618 0 0 1-.636-.635.576.576 0 0 0-.141-.145.224.224 0 0 0-.151-.034.59.59 0 0 0-.2.066l-.366.201c-.107.057-.172.124-.195.202-.024.078 0 .17.069.278.246.428.581.75 1.007.964.425.214.942.321 1.555.321 1.817 0 2.725-.907 2.725-2.723v-6.518c.002-.118-.019-.197-.061-.242-.044-.042-.124-.063-.242-.06h-.517Zm3.344 0c-.118-.002-.198.02-.242.061-.042.045-.063.124-.061.242v1.967c0 .655-.032 1.204-.097 1.645-.067.441-.168.775-.307 1.002-.091.15-.173.265-.248.35a1.243 1.243 0 0 1-.24.21 3.415 3.415 0 0 1-.307.172.29.29 0 0 0-.132.153.285.285 0 0 0 .018.2l.265.504c.045.082.095.134.156.16.059.025.128.023.211-.009a3.95 3.95 0 0 0 .46-.258c.135-.093.263-.204.383-.337a3.17 3.17 0 0 0 .368-.502c.189-.302.33-.725.425-1.262.094-.538.143-1.19.143-1.953v-1.298h2.435v5.156c-.003.118.019.198.061.242.044.042.124.063.241.06h.518c.107.003.183-.018.231-.06.049-.044.072-.124.072-.242v-5.9c0-.118-.023-.197-.072-.242-.048-.042-.124-.063-.231-.06h-4.05Zm6.965 1.967v-1.664c.002-.118-.019-.197-.061-.242-.045-.042-.124-.063-.242-.06h-.53c-.118-.003-.198.018-.242.06-.042.045-.063.124-.061.242v5.9c-.002.118.019.198.061.242.044.042.124.063.242.06h2.788c.486-.001.903-.094 1.247-.274.345-.181.61-.442.795-.782.185-.34.278-.748.28-1.225-.002-.473-.095-.876-.28-1.212a1.867 1.867 0 0 0-.795-.774c-.344-.178-.761-.269-1.247-.27h-1.955Zm0 3.53v-2.509h1.817c.401.005.713.114.935.33.223.217.337.517.339.906-.002.401-.116.712-.339.935-.222.223-.534.334-.935.338h-1.817Zm5.097-5.497c-.118-.002-.197.02-.242.061-.042.045-.063.124-.061.242v.441c-.002.107.019.183.061.231.045.049.124.072.242.072h1.842v5.156c-.001.118.019.198.061.242.045.042.124.063.242.06h.53c.105.003.181-.018.225-.06.045-.044.068-.124.065-.242v-5.156h1.843c.107 0 .183-.023.231-.072.048-.048.072-.124.072-.23v-.442c0-.118-.024-.197-.072-.242-.048-.042-.124-.063-.231-.06h-4.808Zm5.943 1.135c-.05.1-.063.187-.035.256.025.072.092.129.199.173l.392.176c.077.03.138.044.18.044.042 0 .08-.014.114-.046a1.16 1.16 0 0 0 .122-.15c.158-.258.366-.45.627-.577.258-.128.572-.191.938-.191.367 0 .662.059.883.172.221.116.378.284.475.507.097.224.145.498.143.821v.48a11.438 11.438 0 0 0-1.439-.088c-.675-.003-1.217.06-1.631.188-.415.128-.715.336-.905.626-.187.292-.279.679-.277 1.164 0 .347.05.648.149.9.101.252.248.456.444.613.195.164.475.286.839.368.364.082.807.124 1.331.124.473 0 .89-.027 1.251-.084.36-.055.667-.137.919-.244.118-.048.208-.1.276-.155a.45.45 0 0 0 .139-.215c.027-.088.04-.203.04-.348v-3.291c.002-.527-.082-.981-.255-1.362a1.844 1.844 0 0 0-.833-.876c-.384-.204-.891-.307-1.524-.309-.625 0-1.151.11-1.58.33-.426.22-.755.553-.982.994Zm4.038 4.186a.3.3 0 0 1-.046.172.319.319 0 0 1-.143.105c-.29.101-.757.151-1.401.151-.389 0-.694-.037-.917-.115-.223-.076-.383-.194-.475-.349-.093-.157-.137-.355-.135-.595-.002-.248.047-.45.146-.605.098-.155.26-.27.487-.344.23-.074.535-.11.919-.11.184 0 .406.009.669.028.263.017.561.042.896.073v1.589Zm7.937.139V28.67c0-.118-.024-.197-.072-.242-.048-.042-.124-.063-.231-.06h-.53c-.107-.003-.183.018-.232.06-.048.045-.071.124-.071.242v5.157h-3.066V28.67c.002-.118-.019-.197-.061-.242-.044-.042-.124-.063-.242-.06h-.53c-.202 0-.303.1-.303.302v5.9c-.002.118.019.198.061.242.044.042.124.063.242.06h4.883v1.45c0 .108.024.184.072.232.048.048.126.072.231.072h.492c.118 0 .198-.024.242-.072.042-.048.063-.124.061-.231v-2.181c.002-.118-.019-.2-.061-.248-.044-.047-.124-.07-.242-.068h-.643ZM152.036 28.369c-.118-.002-.198.019-.242.06-.042.045-.063.125-.061.242v5.9c0 .202.101.303.303.303h.529c.127 0 .228-.05.303-.151l2.713-3.694c.145-.208.278-.408.396-.599.119-.191.223-.378.311-.561h.038c-.07.328-.12.63-.154.91a6.976 6.976 0 0 0-.048.767v3.026c-.002.117.019.197.061.241.044.042.124.063.242.061h.53c.117.002.197-.019.241-.06.042-.045.064-.125.061-.242v-5.9c.003-.118-.019-.198-.061-.242-.044-.042-.124-.063-.241-.061h-.53a.32.32 0 0 0-.291.151l-2.75 3.732a5.886 5.886 0 0 0-.682 1.134h-.038a6.426 6.426 0 0 0 .202-1.639v-3.076c.002-.117-.018-.197-.06-.241-.045-.042-.125-.063-.243-.061h-.529Zm7.091 0c-.118-.002-.198.019-.242.06-.042.045-.063.125-.061.242v5.9c0 .202.101.303.303.303h.53a.36.36 0 0 0 .303-.151l2.713-3.694c.145-.208.277-.408.395-.599.12-.191.223-.378.311-.561h.038c-.069.328-.12.63-.153.91a6.753 6.753 0 0 0-.049.767v3.026c-.002.117.019.197.061.241.044.042.124.063.242.061h.53c.118.002.197-.019.242-.06.042-.045.063-.125.061-.242v-5.9c.002-.118-.019-.198-.061-.242-.045-.042-.124-.063-.242-.061h-.53a.366.366 0 0 0-.169.038.311.311 0 0 0-.121.113l-2.751 3.732a5.83 5.83 0 0 0-.681 1.134h-.038a6.422 6.422 0 0 0 .202-1.639v-3.076c.002-.117-.019-.197-.062-.241-.043-.042-.123-.063-.241-.061h-.53Zm9.463 4.286c.002.502.116.933.341 1.29.225.36.547.635.967.828.421.191.928.288 1.519.29.603-.002 1.116-.099 1.537-.29.423-.193.744-.468.967-.828.221-.357.332-.788.335-1.29V30.6c-.003-.506-.114-.94-.335-1.3a2.143 2.143 0 0 0-.967-.828c-.421-.194-.934-.29-1.537-.292-.591.002-1.098.098-1.519.292a2.17 2.17 0 0 0-.967.828c-.225.36-.339.794-.341 1.3v2.055Zm4.543 0c0 .29-.07.54-.206.746a1.3 1.3 0 0 1-.589.475c-.255.11-.562.166-.921.166-.356 0-.658-.057-.913-.166a1.3 1.3 0 0 1-.585-.475 1.343 1.343 0 0 1-.206-.746v-2.067c.002-.293.07-.54.206-.746.137-.208.331-.366.585-.475a2.3 2.3 0 0 1 .913-.166c.359 0 .666.056.921.166.256.11.452.267.589.475.136.206.206.454.206.746v2.067Zm7.116-4.286c-.107-.002-.183.019-.231.06-.049.045-.072.125-.072.242v2.358h-3.192V28.67c.002-.117-.019-.197-.061-.241-.044-.042-.124-.063-.242-.061h-.53c-.117-.002-.198.019-.242.06-.042.045-.063.125-.06.242v5.9c0 .202.1.303.302.303h.53c.118.002.198-.019.242-.06.042-.045.063-.125.061-.242v-2.497h3.192v2.497c0 .117.023.197.072.241.048.042.124.063.231.061h.53c.107.002.183-.019.232-.06.048-.045.071-.125.071-.242v-5.9c0-.118-.023-.198-.071-.242-.049-.042-.125-.063-.232-.061h-.53Zm3.382 0c-.118-.002-.198.019-.242.06-.042.045-.063.125-.061.242v1.967c0 .656-.032 1.204-.097 1.645-.067.442-.168.776-.307 1.003-.09.149-.172.264-.248.348a1.243 1.243 0 0 1-.24.21 3.415 3.415 0 0 1-.307.173.294.294 0 0 0-.132.153.28.28 0 0 0 .019.2l.265.504c.044.082.094.135.155.16.059.025.129.023.211-.008a3.87 3.87 0 0 0 .46-.259c.135-.092.263-.204.383-.336.122-.133.244-.299.368-.502.189-.303.33-.725.425-1.263.094-.538.143-1.19.143-1.952v-1.299h2.435v5.157c-.002.117.019.197.061.241.044.042.124.063.242.061h.517c.108.002.183-.019.231-.06.049-.045.072-.125.072-.242v-5.9c0-.118-.023-.198-.072-.242-.048-.042-.123-.063-.231-.061h-4.05Zm5.703 1.134c-.051.101-.063.187-.036.257.026.071.093.128.2.172l.391.177c.078.029.139.044.181.044.042 0 .08-.015.114-.047.033-.033.073-.082.122-.149.158-.258.366-.451.626-.578.259-.128.572-.19.938-.19.368 0 .663.058.883.171.221.116.379.284.476.507.096.225.145.498.143.822v.479a11.406 11.406 0 0 0-1.439-.088c-.675-.003-1.217.06-1.631.188-.415.129-.715.337-.905.627-.187.292-.28.678-.277 1.164 0 .346.05.647.149.899.101.252.248.456.444.614.195.163.475.285.839.367a6.14 6.14 0 0 0 1.331.124c.473 0 .889-.027 1.251-.084.36-.054.667-.136.919-.243.118-.049.209-.101.276-.156a.442.442 0 0 0 .138-.214 1.19 1.19 0 0 0 .04-.35v-3.29c.002-.527-.082-.981-.254-1.361a1.848 1.848 0 0 0-.833-.877c-.385-.203-.891-.306-1.524-.308-.625 0-1.151.109-1.58.33-.427.22-.755.552-.982.993Zm4.038 4.186c0 .07-.015.126-.047.172a.307.307 0 0 1-.143.105c-.29.101-.757.152-1.4.152-.389 0-.694-.038-.917-.116-.223-.076-.383-.193-.475-.349-.093-.157-.137-.355-.135-.594-.002-.248.047-.45.145-.605.099-.156.261-.272.488-.345.229-.074.534-.11.919-.11.183 0 .406.01.669.028.263.017.562.042.896.073v1.589Zm7.356-7.552c.019-.063.019-.117-.002-.162-.023-.046-.067-.084-.137-.115l-.441-.164c-.127-.038-.215 0-.266.113-.163.555-.529.832-1.097.832-.284 0-.515-.069-.694-.208-.179-.138-.309-.346-.391-.624-.026-.056-.063-.092-.114-.107a.366.366 0 0 0-.189.006l-.391.152c-.07.019-.114.052-.137.1a.264.264 0 0 0-.002.177c.145.448.376.782.694 1.005.317.22.726.332 1.224.332.505 0 .919-.112 1.241-.332.323-.223.557-.557.702-1.005Zm-4.454 2.232c-.118-.002-.198.019-.242.06-.042.045-.063.125-.061.242v5.9c0 .202.101.303.303.303h.53a.36.36 0 0 0 .303-.151l2.713-3.694c.145-.208.277-.408.395-.599.12-.191.223-.378.311-.561h.038c-.069.328-.12.63-.154.91a6.976 6.976 0 0 0-.048.767v3.026c-.002.117.019.197.061.241.044.042.124.063.242.061h.53c.118.002.198-.019.242-.06.042-.045.063-.125.061-.242v-5.9c.002-.118-.019-.198-.061-.242-.044-.042-.124-.063-.242-.061h-.53a.36.36 0 0 0-.168.038.307.307 0 0 0-.122.113l-2.751 3.732a5.83 5.83 0 0 0-.681 1.134h-.038a6.422 6.422 0 0 0 .202-1.639v-3.076c.002-.117-.019-.197-.061-.241-.044-.042-.124-.063-.242-.061h-.53Zm11.419 0c-.107-.002-.183.019-.231.06-.049.045-.072.125-.072.242v2.358h-3.192V28.67c.002-.117-.019-.197-.061-.241-.044-.042-.124-.063-.242-.061h-.53c-.118-.002-.198.019-.242.06-.042.045-.063.125-.061.242v5.9c0 .202.101.303.303.303h.53c.118.002.198-.019.242-.06.042-.045.063-.125.061-.242v-2.497h3.192v2.497c0 .117.023.197.072.241.048.042.124.063.231.061h.53c.107.002.183-.019.231-.06.049-.045.072-.125.072-.242v-5.9c0-.118-.023-.198-.072-.242-.048-.042-.124-.063-.231-.061h-.53Z"/><path fill="#140A32" d="M6.387 31.054H4.962V28.67c.002-.118-.02-.197-.061-.242-.045-.042-.124-.063-.242-.06h-.53c-.118-.003-.198.018-.242.06-.042.045-.063.124-.061.242v5.9c0 .202.1.303.303.303h.53c.118.002.197-.019.242-.061.042-.044.063-.124.06-.242v-2.47h1.426v.566c.003.503.112.931.326 1.289.217.357.53.63.943.82.41.188.908.285 1.495.287.59-.002 1.091-.099 1.505-.288.413-.189.728-.462.945-.82.214-.357.323-.785.326-1.288v-2.092c-.002-.502-.112-.931-.326-1.288a2.089 2.089 0 0 0-.945-.82c-.414-.191-.914-.286-1.505-.288-.587.002-1.085.097-1.495.288-.413.19-.726.462-.943.82-.214.357-.324.786-.326 1.288v.479Zm4.404 1.613c0 .286-.067.532-.198.738-.13.204-.317.361-.563.47-.244.11-.537.167-.88.167-.34 0-.632-.057-.876-.166a1.24 1.24 0 0 1-.555-.47 1.368 1.368 0 0 1-.196-.739v-2.092a1.38 1.38 0 0 1 .196-.744c.128-.204.313-.36.555-.469a2.17 2.17 0 0 1 .877-.161c.525.002.931.121 1.213.36.282.238.425.577.427 1.014v2.092Zm2.978-4.122a1.173 1.173 0 0 0-.307.166.446.446 0 0 0-.147.218c-.028.087-.04.198-.038.335v8.08c-.002.108.02.184.065.232.044.048.12.071.225.071h.53c.118.003.198-.018.242-.06.042-.045.063-.125.06-.242v-2.622c.329.113.63.197.9.254.274.057.52.086.741.086 1.792 0 2.688-.857 2.688-2.572v-1.778c0-.844-.221-1.479-.66-1.901-.442-.423-1.1-.633-1.977-.633-.461 0-.884.032-1.27.093a5.444 5.444 0 0 0-1.052.273Zm3.823 3.908c0 .523-.134.916-.408 1.181-.273.263-.683.395-1.232.395-.202 0-.431-.027-.69-.084a7.485 7.485 0 0 1-.862-.244v-4.034c-.002-.074.008-.128.033-.166.024-.038.076-.07.156-.099a4.658 4.658 0 0 1 1.338-.189c.555 0 .971.128 1.249.387.277.256.416.64.416 1.151v1.702Zm2.801-4.085c-.117-.002-.197.02-.242.061-.042.045-.063.124-.06.242v5.9c0 .202.1.303.302.303h.53a.36.36 0 0 0 .303-.151l2.713-3.694c.145-.208.277-.408.395-.6.12-.19.223-.377.311-.56h.038c-.07.328-.12.63-.153.91a6.86 6.86 0 0 0-.049.767v3.025c-.002.118.02.198.061.242.045.042.124.063.242.06h.53c.118.003.198-.018.242-.06.042-.044.063-.124.061-.242v-5.9c.002-.118-.019-.197-.06-.242-.045-.042-.125-.063-.243-.06h-.53a.36.36 0 0 0-.168.037.315.315 0 0 0-.122.114l-2.75 3.732a5.887 5.887 0 0 0-.682 1.134h-.038a6.474 6.474 0 0 0 .202-1.639v-3.076c.002-.118-.019-.197-.06-.242-.045-.042-.125-.063-.243-.06h-.53Zm12.48 5.46V28.67c0-.118-.024-.197-.072-.242-.049-.042-.124-.063-.232-.06h-4.163c-.108-.003-.183.018-.232.06-.048.045-.071.124-.071.242v1.904c0 .523-.02.97-.055 1.345-.038.371-.09.672-.16.899a2.736 2.736 0 0 1-.267.599 1.57 1.57 0 0 1-.351.41h-.34c-.106-.003-.181.02-.226.067-.044.048-.067.13-.065.248v2.18c-.002.108.021.184.065.232.044.048.12.072.225.072h.492c.108 0 .188-.026.238-.077.053-.05.078-.125.078-.226v-1.45h4.984v1.45c0 .107.023.183.071.23.049.05.127.072.232.072h.492c.118 0 .198-.023.242-.071.042-.048.063-.124.06-.231v-2.181c.003-.118-.018-.2-.06-.248-.044-.047-.124-.07-.242-.068h-.644ZM29.2 29.415h2.536v4.413H28.57c.208-.303.366-.72.47-1.25.108-.53.16-1.178.16-1.94v-1.223Zm5.917-1.047c-.117-.002-.197.02-.242.061-.042.045-.063.124-.06.242v5.9c0 .202.1.303.302.303h.53a.36.36 0 0 0 .303-.151l2.713-3.694c.145-.208.277-.408.395-.6.12-.19.223-.377.312-.56h.037c-.07.328-.12.63-.153.91a6.86 6.86 0 0 0-.049.767v3.025c-.002.118.02.198.062.242.044.042.123.063.241.06h.53c.118.003.198-.018.242-.06.042-.044.063-.124.061-.242v-5.9c.002-.118-.019-.197-.06-.242-.045-.042-.125-.063-.243-.06h-.53a.361.361 0 0 0-.168.037.32.32 0 0 0-.122.114l-2.75 3.732a5.887 5.887 0 0 0-.682 1.134h-.038a6.474 6.474 0 0 0 .202-1.639v-3.076c.002-.118-.019-.197-.06-.242-.045-.042-.125-.063-.243-.06h-.53Zm6.41 1.829c-.002.8.204 1.399.623 1.798.418.397 1.064.597 1.938.597.745 0 1.275-.063 1.59-.19v2.17c0 .117.023.197.072.24.048.043.124.064.231.062h.53c.108.002.183-.019.232-.061.048-.044.071-.124.071-.242v-5.9c0-.118-.023-.197-.071-.242-.049-.042-.124-.063-.232-.06h-.53c-.107-.003-.183.018-.23.06-.05.045-.073.124-.073.242v2.673c-.378.151-.857.227-1.438.227-1.06 0-1.59-.467-1.59-1.4v-1.5c.002-.107-.02-.183-.065-.231-.044-.049-.12-.072-.225-.072h-.53c-.118-.002-.198.02-.242.061-.042.045-.063.124-.06.242v1.526Zm6.625 2.244c0 .54.103 1.006.309 1.397.206.39.515.691.93.904.416.212.935.319 1.562.321.656 0 1.211-.107 1.663-.324.454-.214.804-.54 1.05-.975.138-.214.1-.378-.114-.491l-.34-.177c-.106-.07-.196-.094-.27-.075-.076.018-.15.081-.223.189a1.64 1.64 0 0 1-.696.653c-.294.145-.648.217-1.057.217-.551-.002-.97-.133-1.258-.393-.286-.259-.431-.633-.433-1.12v-.605h4.113c.158 0 .276-.038.351-.112.078-.076.116-.185.116-.33v-.731c0-.525-.11-.981-.324-1.372a2.217 2.217 0 0 0-.959-.908c-.423-.216-.946-.326-1.569-.33-.618.002-1.14.108-1.564.318a2.158 2.158 0 0 0-.96.918c-.218.401-.327.889-.327 1.462v1.564Zm4.58-1.35h-3.457v-.365c0-.334.067-.618.197-.855a1.31 1.31 0 0 1 .585-.542c.257-.126.572-.192.946-.192.564.003.993.141 1.285.416.295.274.442.665.444 1.173v.366Zm2.17 1.425c0 .54.103.998.307 1.379.204.378.509.666.917.865.408.2.917.3 1.527.303 1.426 0 2.347-.58 2.763-1.74.038-.1.038-.187.002-.256-.037-.072-.11-.128-.216-.172l-.442-.127c-.116-.046-.206-.052-.267-.023-.061.032-.116.105-.162.225-.12.366-.315.641-.591.824-.273.183-.626.273-1.062.273-.538-.004-.944-.135-1.222-.395-.277-.26-.416-.628-.418-1.105v-1.904c.002-.475.14-.843.418-1.099.278-.256.684-.387 1.222-.389.436 0 .789.088 1.062.265.271.176.465.441.578.794.045.114.101.187.173.219.07.034.156.027.257-.017l.441-.139c.107-.038.177-.092.21-.161.032-.072.03-.16-.008-.267-.177-.561-.486-.984-.93-1.265-.441-.284-1.02-.425-1.733-.425-.626.002-1.15.103-1.568.3-.419.2-.732.488-.942.867-.21.376-.316.832-.316 1.367v1.803Zm11.104-.24a2.532 2.532 0 0 0-.452-.663 1.568 1.568 0 0 0-.558-.37l2.02-2.522c.094-.12.126-.208.094-.266-.032-.057-.126-.087-.284-.087h-.48a2.092 2.092 0 0 0-.281.01.36.36 0 0 0-.173.064.634.634 0 0 0-.139.153l-1.88 2.434h-1.11V28.67c.002-.118-.02-.197-.067-.242-.049-.042-.13-.063-.248-.06h-.505c-.118-.003-.2.018-.248.06-.046.045-.07.124-.067.242v5.888c-.003.117.02.2.067.248.048.046.13.069.248.067h.505c.117.002.2-.021.248-.067.046-.049.07-.13.067-.248v-2.484h1.148c.196 0 .364.021.505.067.141.046.26.12.362.223.1.1.191.235.269.403l.87 1.829a.671.671 0 0 0 .11.178c.036.04.086.067.147.08a1.4 1.4 0 0 0 .26.019h.493c.145 0 .231-.027.26-.082.03-.057.005-.147-.07-.271l-1.111-2.244Zm2.498-3.908c-.118-.002-.197.02-.242.061-.042.045-.063.124-.06.242v5.9c0 .202.1.303.302.303h.53a.36.36 0 0 0 .303-.151l2.713-3.694c.145-.208.277-.408.395-.6a5.76 5.76 0 0 0 .311-.56h.038c-.07.328-.12.63-.153.91a6.86 6.86 0 0 0-.048.767v3.025c-.003.118.019.198.06.242.044.042.124.063.242.06h.53c.118.003.198-.018.242-.06.042-.044.063-.124.061-.242v-5.9c.002-.118-.019-.197-.06-.242-.045-.042-.125-.063-.243-.06h-.53a.36.36 0 0 0-.168.037.32.32 0 0 0-.122.114l-2.75 3.732a5.882 5.882 0 0 0-.682 1.134h-.038a6.528 6.528 0 0 0 .202-1.639v-3.076c.002-.118-.019-.197-.06-.242-.045-.042-.125-.063-.243-.06h-.53Zm6.562 4.073c0 .54.103 1.006.309 1.397.206.39.515.691.93.904.416.212.935.319 1.562.321.656 0 1.21-.107 1.663-.324.454-.214.804-.54 1.05-.975.138-.214.1-.378-.114-.491l-.34-.177c-.106-.07-.196-.094-.27-.075-.076.018-.15.081-.223.189-.17.29-.404.508-.696.653-.294.145-.648.217-1.058.217-.55-.002-.97-.133-1.257-.393-.286-.259-.431-.633-.433-1.12v-.605h4.113c.158 0 .276-.038.351-.112.078-.076.116-.185.116-.33v-.731c0-.525-.11-.981-.324-1.372a2.214 2.214 0 0 0-.959-.908c-.423-.216-.946-.326-1.569-.33-.618.002-1.14.108-1.565.318a2.156 2.156 0 0 0-.958.918c-.219.401-.328.889-.328 1.462v1.564Zm4.58-1.35H76.19v-.365c0-.334.067-.618.197-.855.133-.235.328-.418.585-.542.257-.126.572-.192.946-.192.564.003.993.141 1.285.416.295.274.442.665.444 1.173v.366Zm9.64 1.186a2.54 2.54 0 0 0-.452-.664 1.566 1.566 0 0 0-.558-.37l2.02-2.522c.094-.12.126-.208.094-.266-.031-.057-.126-.087-.284-.087h-.48a2.09 2.09 0 0 0-.281.01.361.361 0 0 0-.173.064.634.634 0 0 0-.138.153l-1.88 2.434h-1.111V28.67c.002-.118-.021-.197-.067-.242-.048-.042-.13-.063-.249-.06h-.504c-.118-.003-.2.018-.248.06-.046.045-.07.124-.067.242v5.888c-.003.117.02.2.067.248.048.046.13.069.248.067h.504c.118.002.2-.021.249-.067.046-.049.07-.13.067-.248v-2.484h1.148c.196 0 .364.021.505.067.14.046.26.12.362.223.1.1.191.235.269.403l.87 1.829a.682.682 0 0 0 .11.178c.036.04.086.067.147.08.063.013.15.019.261.019h.492c.145 0 .231-.027.26-.082.03-.057.005-.147-.07-.271l-1.111-2.244Zm1.994.378c.002.502.115.933.34 1.29.225.36.547.635.968.828.42.191.927.288 1.518.29.603-.002 1.117-.099 1.537-.29.423-.193.745-.469.968-.828.22-.357.332-.788.334-1.29V30.6c-.002-.507-.113-.94-.334-1.3a2.146 2.146 0 0 0-.968-.829c-.42-.193-.934-.29-1.537-.292-.59.002-1.098.099-1.518.292-.421.192-.743.469-.968.828-.225.362-.338.794-.34 1.3v2.056Zm4.542 0c0 .29-.07.54-.206.746a1.295 1.295 0 0 1-.59.475c-.253.109-.56.166-.92.166a2.3 2.3 0 0 1-.913-.166 1.294 1.294 0 0 1-.584-.475 1.34 1.34 0 0 1-.207-.746v-2.068c.003-.292.07-.54.207-.746.136-.208.33-.365.584-.475.255-.109.558-.165.913-.165.36 0 .667.056.92.165.258.11.453.267.59.475.136.206.206.454.206.746v2.068Zm7.116-4.287c-.107-.002-.182.02-.231.061-.048.045-.071.124-.071.242v2.358h-3.193V28.67c.002-.118-.019-.197-.06-.242-.045-.042-.125-.063-.243-.06h-.53c-.117-.003-.197.018-.242.06-.041.045-.062.124-.06.242v5.9c0 .202.1.303.303.303h.53c.117.002.197-.019.241-.061.042-.044.064-.124.061-.242v-2.496h3.193v2.496c0 .118.023.198.071.242.049.042.124.063.231.06h.53c.107.003.183-.018.232-.06.048-.044.071-.124.071-.242v-5.9c0-.118-.023-.197-.071-.242-.049-.042-.125-.063-.232-.06h-.53Zm2.183 4.148c0 .54.103.998.307 1.379.204.378.509.666.917.865.408.2.917.3 1.527.303 1.426 0 2.347-.58 2.763-1.74.038-.1.038-.187.003-.256a.406.406 0 0 0-.217-.172l-.442-.127c-.116-.046-.206-.052-.267-.023-.061.032-.115.105-.162.225-.12.366-.315.641-.591.824-.273.183-.626.273-1.062.273-.538-.004-.944-.135-1.222-.395-.277-.26-.416-.628-.418-1.105v-1.904c.002-.475.141-.843.418-1.099.278-.256.684-.387 1.222-.389.436 0 .789.088 1.062.265.271.176.465.441.579.794.044.114.101.187.172.219.069.034.156.027.257-.017l.441-.139c.107-.038.177-.092.211-.161.031-.072.029-.16-.009-.267-.176-.561-.486-.984-.929-1.265-.442-.284-1.02-.425-1.733-.425-.627.002-1.15.103-1.569.3-.418.2-.732.488-.942.867-.21.376-.316.832-.316 1.367v1.803Zm11.344-4.148c-.107-.002-.183.02-.231.061-.049.045-.072.124-.072.242v4.854a6.151 6.151 0 0 1-.831.2 4.874 4.874 0 0 1-.784.065c-.53 0-.928-.127-1.192-.377-.265-.252-.398-.626-.398-1.124v-3.618c.002-.107-.021-.183-.065-.231-.044-.049-.12-.072-.225-.072h-.53c-.118-.002-.198.02-.242.061-.042.045-.063.124-.061.242v3.656c0 .832.214 1.456.642 1.872.428.416 1.068.625 1.919.625.265 0 .545-.024.842-.068a8 8 0 0 0 .925-.197v.68c0 .555-.135.971-.406 1.249-.269.277-.673.416-1.209.416-.36 0-.669-.07-.929-.21a1.618 1.618 0 0 1-.636-.635.576.576 0 0 0-.141-.145.224.224 0 0 0-.151-.034.59.59 0 0 0-.2.066l-.366.201c-.107.057-.172.124-.195.202-.024.078 0 .17.069.278.246.428.581.75 1.007.964.425.214.942.321 1.555.321 1.817 0 2.725-.907 2.725-2.723v-6.518c.002-.118-.019-.197-.061-.242-.044-.042-.124-.063-.242-.06h-.517Zm3.344 0c-.118-.002-.198.02-.242.061-.042.045-.063.124-.061.242v1.967c0 .655-.032 1.204-.097 1.645-.067.441-.168.775-.307 1.002-.091.15-.173.265-.248.35a1.243 1.243 0 0 1-.24.21 3.415 3.415 0 0 1-.307.172.29.29 0 0 0-.132.153.285.285 0 0 0 .018.2l.265.504c.045.082.095.134.156.16.059.025.128.023.211-.009a3.95 3.95 0 0 0 .46-.258c.135-.093.263-.204.383-.337a3.17 3.17 0 0 0 .368-.502c.189-.302.33-.725.425-1.262.094-.538.143-1.19.143-1.953v-1.298h2.435v5.156c-.003.118.019.198.061.242.044.042.124.063.241.06h.518c.107.003.183-.018.231-.06.049-.044.072-.124.072-.242v-5.9c0-.118-.023-.197-.072-.242-.048-.042-.124-.063-.231-.06h-4.05Zm6.965 1.967v-1.664c.002-.118-.019-.197-.061-.242-.045-.042-.124-.063-.242-.06h-.53c-.118-.003-.198.018-.242.06-.042.045-.063.124-.061.242v5.9c-.002.118.019.198.061.242.044.042.124.063.242.06h2.788c.486-.001.903-.094 1.247-.274.345-.181.61-.442.795-.782.185-.34.278-.748.28-1.225-.002-.473-.095-.876-.28-1.212a1.867 1.867 0 0 0-.795-.774c-.344-.178-.761-.269-1.247-.27h-1.955Zm0 3.53v-2.509h1.817c.401.005.713.114.935.33.223.217.337.517.339.906-.002.401-.116.712-.339.935-.222.223-.534.334-.935.338h-1.817Zm5.097-5.497c-.118-.002-.197.02-.242.061-.042.045-.063.124-.061.242v.441c-.002.107.019.183.061.231.045.049.124.072.242.072h1.842v5.156c-.001.118.019.198.061.242.045.042.124.063.242.06h.53c.105.003.181-.018.225-.06.045-.044.068-.124.065-.242v-5.156h1.843c.107 0 .183-.023.231-.072.048-.048.072-.124.072-.23v-.442c0-.118-.024-.197-.072-.242-.048-.042-.124-.063-.231-.06h-4.808Zm5.943 1.135c-.05.1-.063.187-.035.256.025.072.092.129.199.173l.392.176c.077.03.138.044.18.044.042 0 .08-.014.114-.046a1.16 1.16 0 0 0 .122-.15c.158-.258.366-.45.627-.577.258-.128.572-.191.938-.191.367 0 .662.059.883.172.221.116.378.284.475.507.097.224.145.498.143.821v.48a11.438 11.438 0 0 0-1.439-.088c-.675-.003-1.217.06-1.631.188-.415.128-.715.336-.905.626-.187.292-.279.679-.277 1.164 0 .347.05.648.149.9.101.252.248.456.444.613.195.164.475.286.839.368.364.082.807.124 1.331.124.473 0 .89-.027 1.251-.084.36-.055.667-.137.919-.244.118-.048.208-.1.276-.155a.45.45 0 0 0 .139-.215c.027-.088.04-.203.04-.348v-3.291c.002-.527-.082-.981-.255-1.362a1.844 1.844 0 0 0-.833-.876c-.384-.204-.891-.307-1.524-.309-.625 0-1.151.11-1.58.33-.426.22-.755.553-.982.994Zm4.038 4.186a.3.3 0 0 1-.046.172.319.319 0 0 1-.143.105c-.29.101-.757.151-1.401.151-.389 0-.694-.037-.917-.115-.223-.076-.383-.194-.475-.349-.093-.157-.137-.355-.135-.595-.002-.248.047-.45.146-.605.098-.155.26-.27.487-.344.23-.074.535-.11.919-.11.184 0 .406.009.669.028.263.017.561.042.896.073v1.589Zm7.937.139V28.67c0-.118-.024-.197-.072-.242-.048-.042-.124-.063-.231-.06h-.53c-.107-.003-.183.018-.232.06-.048.045-.071.124-.071.242v5.157h-3.066V28.67c.002-.118-.019-.197-.061-.242-.044-.042-.124-.063-.242-.06h-.53c-.202 0-.303.1-.303.302v5.9c-.002.118.019.198.061.242.044.042.124.063.242.06h4.883v1.45c0 .108.024.184.072.232.048.048.126.072.231.072h.492c.118 0 .198-.024.242-.072.042-.048.063-.124.061-.231v-2.181c.002-.118-.019-.2-.061-.248-.044-.047-.124-.07-.242-.068h-.643ZM152.036 28.369c-.118-.002-.198.019-.242.06-.042.045-.063.125-.061.242v5.9c0 .202.101.303.303.303h.529c.127 0 .228-.05.303-.151l2.713-3.694c.145-.208.278-.408.396-.599.119-.191.223-.378.311-.561h.038c-.07.328-.12.63-.154.91a6.976 6.976 0 0 0-.048.767v3.026c-.002.117.019.197.061.241.044.042.124.063.242.061h.53c.117.002.197-.019.241-.06.042-.045.064-.125.061-.242v-5.9c.003-.118-.019-.198-.061-.242-.044-.042-.124-.063-.241-.061h-.53a.32.32 0 0 0-.291.151l-2.75 3.732a5.886 5.886 0 0 0-.682 1.134h-.038a6.426 6.426 0 0 0 .202-1.639v-3.076c.002-.117-.018-.197-.06-.241-.045-.042-.125-.063-.243-.061h-.529Zm7.091 0c-.118-.002-.198.019-.242.06-.042.045-.063.125-.061.242v5.9c0 .202.101.303.303.303h.53a.36.36 0 0 0 .303-.151l2.713-3.694c.145-.208.277-.408.395-.599.12-.191.223-.378.311-.561h.038c-.069.328-.12.63-.153.91a6.753 6.753 0 0 0-.049.767v3.026c-.002.117.019.197.061.241.044.042.124.063.242.061h.53c.118.002.197-.019.242-.06.042-.045.063-.125.061-.242v-5.9c.002-.118-.019-.198-.061-.242-.045-.042-.124-.063-.242-.061h-.53a.366.366 0 0 0-.169.038.311.311 0 0 0-.121.113l-2.751 3.732a5.83 5.83 0 0 0-.681 1.134h-.038a6.422 6.422 0 0 0 .202-1.639v-3.076c.002-.117-.019-.197-.062-.241-.043-.042-.123-.063-.241-.061h-.53Zm9.463 4.286c.002.502.116.933.341 1.29.225.36.547.635.967.828.421.191.928.288 1.519.29.603-.002 1.116-.099 1.537-.29.423-.193.744-.468.967-.828.221-.357.332-.788.335-1.29V30.6c-.003-.506-.114-.94-.335-1.3a2.143 2.143 0 0 0-.967-.828c-.421-.194-.934-.29-1.537-.292-.591.002-1.098.098-1.519.292a2.17 2.17 0 0 0-.967.828c-.225.36-.339.794-.341 1.3v2.055Zm4.543 0c0 .29-.07.54-.206.746a1.3 1.3 0 0 1-.589.475c-.255.11-.562.166-.921.166-.356 0-.658-.057-.913-.166a1.3 1.3 0 0 1-.585-.475 1.343 1.343 0 0 1-.206-.746v-2.067c.002-.293.07-.54.206-.746.137-.208.331-.366.585-.475a2.3 2.3 0 0 1 .913-.166c.359 0 .666.056.921.166.256.11.452.267.589.475.136.206.206.454.206.746v2.067Zm7.116-4.286c-.107-.002-.183.019-.231.06-.049.045-.072.125-.072.242v2.358h-3.192V28.67c.002-.117-.019-.197-.061-.241-.044-.042-.124-.063-.242-.061h-.53c-.117-.002-.198.019-.242.06-.042.045-.063.125-.06.242v5.9c0 .202.1.303.302.303h.53c.118.002.198-.019.242-.06.042-.045.063-.125.061-.242v-2.497h3.192v2.497c0 .117.023.197.072.241.048.042.124.063.231.061h.53c.107.002.183-.019.232-.06.048-.045.071-.125.071-.242v-5.9c0-.118-.023-.198-.071-.242-.049-.042-.125-.063-.232-.061h-.53Zm3.382 0c-.118-.002-.198.019-.242.06-.042.045-.063.125-.061.242v1.967c0 .656-.032 1.204-.097 1.645-.067.442-.168.776-.307 1.003-.09.149-.172.264-.248.348a1.243 1.243 0 0 1-.24.21 3.415 3.415 0 0 1-.307.173.294.294 0 0 0-.132.153.28.28 0 0 0 .019.2l.265.504c.044.082.094.135.155.16.059.025.129.023.211-.008a3.87 3.87 0 0 0 .46-.259c.135-.092.263-.204.383-.336.122-.133.244-.299.368-.502.189-.303.33-.725.425-1.263.094-.538.143-1.19.143-1.952v-1.299h2.435v5.157c-.002.117.019.197.061.241.044.042.124.063.242.061h.517c.108.002.183-.019.231-.06.049-.045.072-.125.072-.242v-5.9c0-.118-.023-.198-.072-.242-.048-.042-.123-.063-.231-.061h-4.05Zm5.703 1.134c-.051.101-.063.187-.036.257.026.071.093.128.2.172l.391.177c.078.029.139.044.181.044.042 0 .08-.015.114-.047.033-.033.073-.082.122-.149.158-.258.366-.451.626-.578.259-.128.572-.19.938-.19.368 0 .663.058.883.171.221.116.379.284.476.507.096.225.145.498.143.822v.479a11.406 11.406 0 0 0-1.439-.088c-.675-.003-1.217.06-1.631.188-.415.129-.715.337-.905.627-.187.292-.28.678-.277 1.164 0 .346.05.647.149.899.101.252.248.456.444.614.195.163.475.285.839.367a6.14 6.14 0 0 0 1.331.124c.473 0 .889-.027 1.251-.084.36-.054.667-.136.919-.243.118-.049.209-.101.276-.156a.442.442 0 0 0 .138-.214 1.19 1.19 0 0 0 .04-.35v-3.29c.002-.527-.082-.981-.254-1.361a1.848 1.848 0 0 0-.833-.877c-.385-.203-.891-.306-1.524-.308-.625 0-1.151.109-1.58.33-.427.22-.755.552-.982.993Zm4.038 4.186c0 .07-.015.126-.047.172a.307.307 0 0 1-.143.105c-.29.101-.757.152-1.4.152-.389 0-.694-.038-.917-.116-.223-.076-.383-.193-.475-.349-.093-.157-.137-.355-.135-.594-.002-.248.047-.45.145-.605.099-.156.261-.272.488-.345.229-.074.534-.11.919-.11.183 0 .406.01.669.028.263.017.562.042.896.073v1.589Zm7.356-7.552c.019-.063.019-.117-.002-.162-.023-.046-.067-.084-.137-.115l-.441-.164c-.127-.038-.215 0-.266.113-.163.555-.529.832-1.097.832-.284 0-.515-.069-.694-.208-.179-.138-.309-.346-.391-.624-.026-.056-.063-.092-.114-.107a.366.366 0 0 0-.189.006l-.391.152c-.07.019-.114.052-.137.1a.264.264 0 0 0-.002.177c.145.448.376.782.694 1.005.317.22.726.332 1.224.332.505 0 .919-.112 1.241-.332.323-.223.557-.557.702-1.005Zm-4.454 2.232c-.118-.002-.198.019-.242.06-.042.045-.063.125-.061.242v5.9c0 .202.101.303.303.303h.53a.36.36 0 0 0 .303-.151l2.713-3.694c.145-.208.277-.408.395-.599.12-.191.223-.378.311-.561h.038c-.069.328-.12.63-.154.91a6.976 6.976 0 0 0-.048.767v3.026c-.002.117.019.197.061.241.044.042.124.063.242.061h.53c.118.002.198-.019.242-.06.042-.045.063-.125.061-.242v-5.9c.002-.118-.019-.198-.061-.242-.044-.042-.124-.063-.242-.061h-.53a.36.36 0 0 0-.168.038.307.307 0 0 0-.122.113l-2.751 3.732a5.83 5.83 0 0 0-.681 1.134h-.038a6.422 6.422 0 0 0 .202-1.639v-3.076c.002-.117-.019-.197-.061-.241-.044-.042-.124-.063-.242-.061h-.53Zm11.419 0c-.107-.002-.183.019-.231.06-.049.045-.072.125-.072.242v2.358h-3.192V28.67c.002-.117-.019-.197-.061-.241-.044-.042-.124-.063-.242-.061h-.53c-.118-.002-.198.019-.242.06-.042.045-.063.125-.061.242v5.9c0 .202.101.303.303.303h.53c.118.002.198-.019.242-.06.042-.045.063-.125.061-.242v-2.497h3.192v2.497c0 .117.023.197.072.241.048.042.124.063.231.061h.53c.107.002.183-.019.231-.06.049-.045.072-.125.072-.242v-5.9c0-.118-.023-.198-.072-.242-.048-.042-.124-.063-.231-.061h-.53Z"/><path fill="#115B82" fill-rule="evenodd" d="M12.663 2.597C11.95 1.047 10.952.272 9.67.19H4.364C3.194 1.573 1.74 3.4 0 5.67c2.322-.017 4.84-.175 7.41.104 2.064.225 3.768.928 4.996 2.304.172-2.187.2-3.986.257-5.48Z" clip-rule="evenodd"/><path fill="#115B82" fill-rule="evenodd" d="M12.663 2.597C11.95 1.047 10.952.272 9.67.19H4.364C3.194 1.573 1.74 3.4 0 5.67c2.322-.017 4.84-.175 7.41.104 2.064.225 3.768.928 4.996 2.304.172-2.187.2-3.986.257-5.48Z" clip-rule="evenodd"/><path fill="#115B82" fill-rule="evenodd" d="M5.296 6.728v17.341h7.088V9.685c-1.858-2.232-4.278-2.84-7.088-2.957Z" clip-rule="evenodd"/><path fill="#115B82" fill-rule="evenodd" d="M5.296 6.728v17.341h7.088V9.685c-1.858-2.232-4.278-2.84-7.088-2.957ZM29.064 23.835c-3.191.268-6.783.658-9.764-.801-1.683-.824-3.02-1.99-3.997-3.496-2.055-3.176-2.4-10.411-.234-14.35.565-1.026 1.363-1.81 2.303-2.494C19.712.989 22.86.091 26.817 0c-4.2 3.33-5.987 5.785-6.299 9.512-.172 2.06-.308 5.98 1.431 7.383.445.359.96.664 1.543.869 2.927 1.028 7.623.475 10.326.198-1.757 2.936-3.572 4.951-4.754 5.873Z" clip-rule="evenodd"/><path fill="#115B82" fill-rule="evenodd" d="M29.064 23.835c-3.191.268-6.783.658-9.764-.801-1.683-.824-3.02-1.99-3.997-3.496-2.055-3.176-2.4-10.411-.234-14.35.565-1.026 1.363-1.81 2.303-2.494C19.712.989 22.86.091 26.817 0c-4.2 3.33-5.987 5.785-6.299 9.512-.172 2.06-.308 5.98 1.431 7.383.445.359.96.664 1.543.869 2.927 1.028 7.623.475 10.326.198-1.757 2.936-3.572 4.951-4.754 5.873ZM51.383.385c3.191-.268 6.783-.658 9.764.801 1.684.824 3.02 1.99 3.996 3.496 2.056 3.176 2.401 10.411.234 14.35-.564 1.026-1.362 1.81-2.301 2.494-2.341 1.705-5.49 2.603-9.446 2.694 4.2-3.33 5.987-5.785 6.299-9.512.172-2.06.308-5.98-1.431-7.383a5.208 5.208 0 0 0-1.543-.869c-2.927-1.028-7.623-.475-10.326-.199 1.757-2.935 3.573-4.95 4.754-5.872Z" clip-rule="evenodd"/><path fill="#115B82" fill-rule="evenodd" d="M51.383.385c3.191-.268 6.783-.658 9.764.801 1.684.824 3.02 1.99 3.996 3.496 2.056 3.176 2.401 10.411.234 14.35-.564 1.026-1.362 1.81-2.301 2.494-2.341 1.705-5.49 2.603-9.446 2.694 4.2-3.33 5.987-5.785 6.299-9.512.172-2.06.308-5.98-1.431-7.383a5.208 5.208 0 0 0-1.543-.869c-2.927-1.028-7.623-.475-10.326-.199 1.757-2.935 3.573-4.95 4.754-5.872Z" clip-rule="evenodd"/><path fill="#115B82" fill-rule="evenodd" d="M30.534 24.008c3.356-2.8 5.46-5.9 5.958-10.01.147-1.214.127-2.441.244-3.658.227-2.377.811-4.771 2.603-6.582C41.523 1.55 44.782.443 49.634.086c-4.003 3.586-5.47 6.514-6.053 11.062-.142 1.106-.168 2.226-.35 3.325-1.02 6.18-6.102 9.803-12.697 9.534Z" clip-rule="evenodd"/><path fill="#115B82" fill-rule="evenodd" d="M30.534 24.008c3.356-2.8 5.46-5.9 5.958-10.01.147-1.214.127-2.441.244-3.658.227-2.377.811-4.771 2.603-6.582C41.523 1.55 44.782.443 49.634.086c-4.003 3.586-5.47 6.514-6.053 11.062-.142 1.106-.168 2.226-.35 3.325-1.02 6.18-6.102 9.803-12.697 9.534ZM35.483 7.884c-1.062-.855-1.994-1.271-3.006-1.526-2.89-.728-6.285-.305-9.4-.208 1.735-3.062 3.535-4.989 5.335-5.973a47.616 47.616 0 0 1 4.256.025c1.555.085 2.818.261 4.26.857.94.388 1.53.757 1.769 1.109-1.779 1.691-2.85 3.618-3.214 5.716Z" clip-rule="evenodd"/><path fill="#115B82" fill-rule="evenodd" d="M35.483 7.884c-1.062-.855-1.994-1.271-3.006-1.526-2.89-.728-6.285-.305-9.4-.208 1.735-3.062 3.535-4.989 5.335-5.973a47.616 47.616 0 0 1 4.256.025c1.555.085 2.818.261 4.26.857.94.388 1.53.757 1.769 1.109-1.779 1.691-2.85 3.618-3.214 5.716ZM44.17 16.336c1.09.855 2.048 1.27 3.086 1.526 2.968.728 6.453.305 9.653.208-1.782 3.062-3.63 4.988-5.478 5.973a50.229 50.229 0 0 1-4.371-.025c-1.597-.085-2.893-.262-4.373-.857-.966-.388-1.571-.758-1.817-1.109 1.826-1.691 2.926-3.618 3.3-5.716Z" clip-rule="evenodd"/><path fill="#115B82" fill-rule="evenodd" d="M44.17 16.336c1.09.855 2.048 1.27 3.086 1.526 2.968.728 6.453.305 9.653.208-1.782 3.062-3.63 4.988-5.478 5.973a50.229 50.229 0 0 1-4.371-.025c-1.597-.085-2.893-.262-4.373-.857-.966-.388-1.571-.758-1.817-1.109 1.826-1.691 2.926-3.618 3.3-5.716Z" clip-rule="evenodd"/></g><defs><clipPath id="a"><path fill="#fff" d="M0 0h211v38H0z"/></clipPath></defs></svg>